<svg width="19" height="19" viewBox="0 0 19 19" fill="none" xmlns="http://www.w3.org/2000/svg">
<g clip-path="url(#clip0_2_756)">
<circle cx="9.65759" cy="9.09091" r="9" fill="white" stroke="#130EAD" stroke-width="0.617647"/>
<path fill-rule="evenodd" clip-rule="evenodd" d="M9.65759 13.8409C10.2076 13.8409 10.6576 13.3909 10.6576 12.8409H8.65759C8.65759 13.3909 9.10259 13.8409 9.65759 13.8409ZM12.6576 10.8409V8.34091C12.6576 6.80591 11.8376 5.52091 10.4076 5.18091V4.84091C10.4076 4.42591 10.0726 4.09091 9.65759 4.09091C9.24259 4.09091 8.90759 4.42591 8.90759 4.84091V5.18091C7.47259 5.52091 6.65759 6.80091 6.65759 8.34091V10.8409L5.65759 11.8409V12.3409H13.6576V11.8409L12.6576 10.8409Z" fill="#130EAD"/>
</g>
<defs>
<clipPath id="clip0_2_756">
<rect width="18" height="18" fill="white" transform="translate(0.657593 0.0909119)"/>
</clipPath>
</defs>
</svg>
