<svg width="19" height="19" viewBox="0 0 19 19" fill="none" xmlns="http://www.w3.org/2000/svg">
<circle cx="9.13053" cy="9.23338" r="8.99955" fill="#F7931A"/>
<path fill-rule="evenodd" clip-rule="evenodd" d="M13.8069 12.5183L13.7101 12.7217C13.4658 13.2343 12.8704 13.5929 12.262 13.5929C11.7778 13.5929 11.362 13.4089 11.0605 13.0606C10.7235 12.6713 10.5448 12.089 10.5448 11.3767C10.5448 10.7125 10.719 10.1531 11.0484 9.75669C11.3445 9.39663 11.7873 9.18945 12.2535 9.19284C12.8295 9.19284 13.3933 9.53349 13.6237 10.0213L13.7137 10.2143L14.7654 9.25224L14.7159 9.14874C14.3109 8.29644 13.3258 7.76724 12.1482 7.76724C10.1817 7.76724 8.86047 9.21669 8.86047 11.3749C8.86047 13.5974 10.1542 15.0338 12.1567 15.0338C13.3267 15.0338 14.2996 14.5132 14.7645 13.6411L14.818 13.5407L13.8069 12.5183Z" fill="white"/>
<path fill-rule="evenodd" clip-rule="evenodd" d="M8.55579 10.6544C8.52338 10.8931 8.50729 11.1336 8.50764 11.3744C8.50734 11.6034 8.52102 11.8321 8.54859 12.0593C8.36814 12.0796 8.17914 12.0944 7.98339 12.1043V13.6676L7.03839 13.6627V12.1205C6.79359 12.1192 6.54339 12.116 6.28464 12.1093V13.6591L5.34189 13.6537V12.0881C5.26025 12.0871 5.17813 12.0856 5.09551 12.084C4.95407 12.0814 4.8112 12.0787 4.66689 12.0787L3.43884 12.0724L3.62649 10.9474C3.62649 10.9474 4.32489 10.9618 4.31274 10.951C4.57734 10.9523 4.65069 10.7611 4.66734 10.6409V6.39969C4.63134 6.20889 4.50714 5.98389 4.12464 5.98389C4.13634 5.97084 3.43929 5.98029 3.43929 5.98029V4.97409L4.74069 4.98129V4.98624C4.93599 4.98714 5.13669 4.98444 5.34099 4.98129V3.43329L6.28599 3.43869V4.95609C6.53799 4.95249 6.79179 4.95024 7.03974 4.95024V3.44274L7.98474 3.44769V4.99434C9.20289 5.10774 10.1677 5.48709 10.2752 6.60399C10.3544 7.41984 10.0124 7.90944 9.46524 8.18484C9.56508 8.20938 9.66348 8.23942 9.75999 8.27484C9.67063 8.35436 9.58547 8.43848 9.50484 8.52684C9.23442 8.82513 9.01612 9.1668 8.85909 9.53754C8.50161 8.85682 7.21621 8.88005 6.53901 8.8923C6.45069 8.89389 6.37271 8.8953 6.30849 8.89494V10.9717C6.36167 10.9719 6.42429 10.9731 6.49442 10.9744C7.03147 10.9846 8.00891 11.0031 8.55579 10.6544ZM6.50411 6.06184C6.42941 6.06339 6.36352 6.06476 6.30939 6.06444V7.94634C6.35368 7.94656 6.40593 7.9477 6.46449 7.94897C7.10801 7.96293 8.51439 7.99343 8.51439 7.01754C8.51439 6.02017 7.1647 6.04815 6.50411 6.06184Z" fill="white"/>
</svg>
