<svg width="20" height="18" viewBox="0 0 20 18" fill="none" xmlns="http://www.w3.org/2000/svg">
<path d="M19.6338 16.3443C19.8362 16.3446 20 16.5137 20 16.7223C20 16.9308 19.8362 17.0999 19.6338 17.1002H5.36621C5.16377 17.0999 5.00002 16.9308 5 16.7223C5 16.5137 5.16375 16.3446 5.36621 16.3443H19.6338ZM19.6338 11.1969C19.8361 11.1971 19.9998 11.3655 20 11.5738C20 11.7821 19.8362 11.9515 19.6338 11.9518H0.366211C0.163754 11.9515 0 11.7821 0 11.5738C0.00016965 11.3655 0.163859 11.1971 0.366211 11.1969H19.6338ZM19.6338 6.04844C19.8361 6.04869 19.9998 6.21731 20 6.42539C20 6.63368 19.8362 6.80307 19.6338 6.80332H5.36621C5.16375 6.80307 5 6.63368 5 6.42539C5.00024 6.21731 5.1639 6.04869 5.36621 6.04844H19.6338ZM19.6338 0.9C19.8362 0.900253 20 1.06964 20 1.27793C19.9998 1.48604 19.8361 1.65463 19.6338 1.65488H0.366211C0.16388 1.65463 0.000202603 1.48627 0 1.27793C0 1.06941 0.163754 0.900253 0.366211 0.9H19.6338Z" fill="#1F263E"/>
</svg>
