<svg width="62" height="70" viewBox="0 0 62 70" fill="none" xmlns="http://www.w3.org/2000/svg">
<g opacity="0.498744">
<path d="M31.901 63.0406C32.8458 63.0122 33.6874 63.636 33.9401 64.5513C33.5454 64.0381 32.9399 63.7337 32.2946 63.7242H32.2584C31.1038 63.7324 30.1591 64.6498 30.1119 65.8091C30.1152 66.0027 30.1383 66.1955 30.1813 66.3843C29.8975 66.0138 29.7466 65.5579 29.7526 65.0904C29.8039 63.9385 30.7526 63.0335 31.9 63.0425L31.901 63.0406ZM20.5924 44.6665L12.5055 49.7007V52.3257L28.3942 61.4956C28.3245 61.5313 28.2511 61.6038 28.1793 61.6402L11.1451 51.7857V49.1607L19.8766 43.731C20.1274 44.0544 20.3423 44.3424 20.5924 44.6665ZM44.7838 44.3804C42.399 47.7241 38.7227 49.9038 34.6569 50.3853V60.7408C34.792 60.805 34.9234 60.8772 35.0504 60.9566C35.3005 61.1008 35.5516 61.2086 35.8024 61.3521C35.4422 61.4963 35.3348 61.4967 35.0485 61.2447L35.0504 61.2427C34.6375 60.9051 34.1793 60.6274 33.6901 60.4165C33.5549 60.3523 33.4234 60.2801 33.2965 60.2007V49.8452C37.4416 49.3514 41.1791 47.1008 43.567 43.6607L44.7838 44.3804ZM6.13538 48.2984C7.10423 48.3256 7.94396 48.9802 8.21057 49.9165C7.81419 49.353 7.17906 49.0069 6.4928 48.981H6.45667C5.2515 49.0151 4.28763 49.9991 4.27307 51.2105C4.27871 51.3922 4.30171 51.5733 4.34241 51.7505C4.07411 51.3849 3.92466 50.9449 3.9137 50.4908C3.98596 49.297 4.9434 48.3504 6.13245 48.2974L6.13538 48.2984ZM57.2369 48.191C58.1715 48.2046 58.9865 48.8331 59.2408 49.7369C58.8408 49.2064 58.2214 48.8883 57.5592 48.8736H57.5231C56.9732 48.8755 56.4461 49.0953 56.0563 49.4849C55.6514 49.8828 55.4196 50.4257 55.4117 50.9947C55.4151 51.1884 55.4391 51.382 55.4821 51.5708C55.1982 51.2002 55.0464 50.7436 55.0524 50.2759C55.1045 49.7211 55.3445 49.2009 55.7321 48.8023H55.734C56.1239 48.4126 56.6509 48.1928 57.2008 48.191H57.2369ZM27.2487 49.1988C28.2352 49.5281 29.2559 49.7452 30.2906 49.8462V50.1343C29.2495 49.9206 28.2305 49.6071 27.2487 49.1988ZM35.3336 36.688C35.3336 36.8678 35.2985 37.0475 35.2985 37.191H28.5348V37.2242C28.529 37.3331 28.5406 37.4423 28.5699 37.5474C28.6055 38.0871 28.6398 38.5542 28.6774 39.0581C28.8584 41.454 29.5157 43.7889 30.61 45.9253C30.778 46.2362 30.9824 46.5261 31.2184 46.7886C30.6456 46.4797 30.192 45.9871 29.9303 45.3892C28.8241 43.2574 28.1661 40.9192 27.9977 38.521C27.9615 38.0178 27.9279 37.5502 27.8903 37.0113C27.896 36.9024 27.8843 36.793 27.8551 36.688H35.3336ZM10.7516 24.9966L8.81897 26.0757V28.4126C8.81897 34.1301 8.81958 40.0636 8.8551 45.8882C8.91589 45.9806 8.98755 46.0655 9.06897 46.1402C9.28353 46.2844 9.53507 46.3922 9.74963 46.5357L9.56995 46.6441C9.46081 46.5565 9.3408 46.4837 9.21252 46.4283L8.46643 46.0464C8.2203 45.9161 7.97853 45.7812 7.74573 45.6372C7.6385 45.5673 7.53094 45.4574 7.53088 45.3853C7.49536 39.5599 7.49573 33.6252 7.49573 27.9097V25.5728L9.64319 24.3492L10.7516 24.9966ZM54.6217 25.1421L46.069 29.9244C47.7126 33.6424 47.7903 37.8708 46.2838 41.647L47.4674 42.3296C49.6862 43.6239 51.9407 44.99 54.1949 46.2857C54.1687 46.2898 54.1444 46.3019 54.1256 46.3208C54.0458 46.3561 53.9611 46.38 53.8746 46.3911L53.8727 46.3921C51.2953 44.8816 48.6485 43.2994 46.108 41.7896L44.9235 41.107C46.4295 37.3306 46.3518 33.1024 44.7086 29.3843L53.4762 24.4947L54.6217 25.1421ZM42.9938 36.7212C43.0116 36.8884 43.0116 37.057 42.9938 37.2242H38.9537C38.8744 40.0246 38.3429 42.7943 37.3795 45.4234C37.0088 45.6366 36.6262 45.8285 36.234 45.9986C37.5311 43.0766 38.2243 39.9204 38.2731 36.7212H42.9938ZM24.9225 36.7212C24.9225 36.9009 24.9585 37.0807 24.9586 37.2242H21.0573C21.3385 40.2508 22.8383 43.0307 25.2086 44.9195C22.4624 43.031 20.6926 40.0149 20.3776 36.6861H24.9215L24.9225 36.7212ZM31.6119 24.0611C32.0421 24.064 32.4442 24.2789 32.6862 24.6363C32.579 24.6363 32.4353 24.6012 32.2926 24.6011L32.2916 24.6021C31.54 24.6021 30.9681 25.1419 30.5739 26.1841C29.9119 27.9235 29.3504 29.7001 28.8922 31.5044C28.7322 32.2002 28.6484 32.9114 28.6422 33.6255V33.6958H27.9264C27.9264 33.4803 27.9615 33.3001 27.9615 33.0845C27.9879 32.3718 28.072 31.6625 28.2125 30.9634C28.6708 29.1591 29.2323 27.3824 29.8942 25.6431C30.2877 24.5646 30.896 24.0249 31.6119 24.0611ZM36.3024 24.9995C37.2447 25.3432 38.1179 25.8543 38.8795 26.5093C38.2979 26.0945 37.6589 25.7675 36.983 25.5386C38.0909 28.1141 38.7439 30.864 38.9137 33.6646L38.9147 33.6656H38.2701C38.1242 30.6836 37.4581 27.75 36.3024 24.9995ZM26.8199 25.0337C26.7812 25.2436 26.7209 25.4489 26.6393 25.646L26.6373 25.6451C26.6018 25.7893 26.5303 25.9332 26.4948 26.0767C23.7625 27.7527 21.8346 30.4825 21.1627 33.6275H20.4117C20.698 30.2116 23.5606 26.4003 26.8199 25.0337ZM28.0709 9.57279C28.1782 9.57279 28.2504 9.64258 28.3932 9.75248C28.5817 9.95789 28.8141 10.118 29.0729 10.2203H29.0377C23.7433 13.3485 18.3016 16.5133 12.8268 19.6773C12.4691 19.8927 12.3983 20.0004 12.5055 20.3599C12.5526 20.6693 12.5647 20.9833 12.5416 21.2954C12.5235 21.4749 12.5235 21.656 12.5416 21.8355C12.5771 22.0507 12.6487 22.2655 12.7203 22.3023C15.1181 23.7408 17.5151 25.1079 20.0201 26.5464L20.2701 26.69C20.2345 26.7597 20.163 26.7977 20.1276 26.8697L18.6608 26.0064C16.153 24.5322 13.7587 23.166 11.361 21.7632C11.2699 21.6214 11.2083 21.462 11.1813 21.2954V20.7554C11.2402 20.4451 11.2279 20.1256 11.1451 19.8208C11.0009 19.5331 11.0377 19.4251 11.4313 19.2095L19.5905 14.4673C22.3011 12.8897 24.994 11.3166 27.6422 9.75248C27.772 9.66495 27.9177 9.60397 28.0709 9.57279ZM37.483 22.2661C39.9626 23.0708 42.1781 24.5374 43.8922 26.5093L43.2438 26.8687C41.7426 24.8688 39.7605 23.2849 37.483 22.2661ZM57.0905 18.6333C58.0307 18.5949 58.8689 19.2263 59.0953 20.1441C58.7007 19.6307 58.0943 19.3264 57.4489 19.3169H57.4137C56.856 19.3037 56.3164 19.5178 55.9186 19.9107C55.5209 20.3036 55.2988 20.8415 55.3024 21.4019C55.3057 21.6074 55.3287 21.8123 55.3717 22.0132C55.0823 21.6319 54.9304 21.1625 54.942 20.6831C54.9922 19.5307 55.9415 18.6247 57.0895 18.6333H57.0905ZM6.09924 18.5259C7.05202 18.5331 7.89187 19.1588 8.17542 20.0728C7.77653 19.5215 7.1349 19.1994 6.45667 19.2095C5.89407 19.2005 5.35161 19.421 4.95374 19.8208C4.55586 20.2207 4.33621 20.7662 4.34534 21.3316C4.35084 21.525 4.37482 21.7177 4.41565 21.9068C4.14789 21.5413 3.99855 21.1017 3.98792 20.648L3.99573 20.437C4.03708 19.9485 4.2481 19.4871 4.59631 19.1372C4.99418 18.7375 5.53667 18.5169 6.09924 18.5259ZM34.441 9.82377C34.7991 9.42832 35.0494 9.42842 35.7291 9.82377V9.82474C35.8719 9.89474 36.0514 10.0046 36.1949 10.0767C36.0514 10.1374 35.9271 10.2365 35.8365 10.3638C35.5074 10.6834 35.0978 10.9072 34.652 11.0113C34.4015 11.0812 34.3307 11.12 34.3307 11.5874V21.2232C33.9016 21.1532 33.4357 21.0788 32.9703 21.0074C32.9703 20.8996 32.9352 20.7557 32.9352 20.648V11.0464C32.9352 10.5791 33.0053 10.5433 33.2574 10.4712C33.7031 10.3671 34.112 10.1432 34.441 9.82377ZM31.4352 3.67533C32.3913 3.67229 33.2356 4.30197 33.5104 5.2222C33.1009 4.68371 32.467 4.36501 31.7926 4.35892C31.2293 4.34782 30.6861 4.568 30.2877 4.9683C29.8893 5.36864 29.6702 5.91494 29.6813 6.48099C29.6868 6.68606 29.7099 6.89032 29.7506 7.09134C29.4618 6.72354 29.3102 6.26576 29.3219 5.7974C29.3108 5.23135 29.5299 4.68503 29.9283 4.2847C30.3267 3.88454 30.87 3.66421 31.4332 3.67533H31.4352Z" fill="#6540F7"/>
<path d="M36.2659 45.9984C37.5462 43.0709 38.2393 39.9184 38.3056 36.7213H43.0294C43.1729 38.0513 42.5286 39.8496 41.3116 41.6479C40.0818 43.5562 38.3297 45.0669 36.2659 45.9984Z" fill="#50E3C2"/>
<path d="M35.3359 36.7213C35.193 39.7418 34.7632 42.8701 33.1533 45.6029C32.7952 46.1783 32.2588 46.8972 31.6145 46.8972C31.0774 46.8972 30.4692 46.3575 29.9683 45.423C28.8622 43.2912 28.2044 40.9535 28.0359 38.5553C28.0003 38.052 27.9662 37.5844 27.9286 37.0447C27.9344 36.9357 27.9224 36.8264 27.8931 36.7213H35.3359Z" fill="#50E3C2"/>
<path d="M35.085 33.7009H27.8923C27.8923 33.4853 27.9279 33.3054 27.9279 33.0898C27.9542 32.3769 28.038 31.6673 28.1786 30.9681C28.6368 29.1637 29.1983 27.3874 29.8603 25.6481C30.2539 24.5694 30.8621 24.0297 31.5782 24.0661C32.3654 24.0661 32.7945 24.7493 33.2961 25.6845C34.55 28.0218 35.014 30.5026 35.3003 33.703L35.085 33.7009Z" fill="#50E3C2"/>
<path d="M38.2694 33.6651C38.1233 30.683 37.4572 27.7498 36.3014 24.9991C39.3073 26.0421 42.5279 29.6737 42.9577 33.6651H38.2694Z" fill="#50E3C2"/>
<path d="M26.8216 25.0349C26.752 25.2505 26.6788 25.4304 26.6071 25.646C26.2143 26.7542 25.8799 27.8826 25.6053 29.0263C25.3566 30.1664 25.1655 31.3184 25.0327 32.478C24.9972 32.8735 24.9254 33.269 24.8537 33.668H20.4161C20.699 30.2492 23.5976 26.4349 26.8216 25.0349Z" fill="#50E3C2"/>
<path d="M24.9219 36.7213C24.9905 39.8643 25.6585 42.9649 26.8899 45.8549C23.7766 44.5949 20.5916 40.8205 20.3771 36.7213H24.9219Z" fill="#50E3C2"/>
<path d="M54.6235 20.8999C54.6199 20.3394 54.8424 19.8014 55.2402 19.4085C55.6381 19.0156 56.1773 18.8013 56.7349 18.8146H56.7712C57.9336 18.8431 58.8584 19.8033 58.8487 20.9717C58.839 22.1401 57.8984 23.0847 56.7356 23.0937C56.1657 23.1025 55.619 22.867 55.2323 22.4462C54.8422 22.0267 54.6248 21.4741 54.6242 20.8999H54.6235Z" fill="#BD10E0"/>
<path d="M55.4106 48.9825C55.8006 48.5927 56.3277 48.3732 56.8777 48.3714H56.9132C58.0799 48.403 59.0128 49.3561 59.0247 50.5288C59.026 51.0949 58.7979 51.6371 58.3928 52.0305C57.9877 52.424 57.4407 52.6347 56.8777 52.6141C56.3114 52.6063 55.7711 52.3735 55.3751 51.9666C54.9805 51.5647 54.7616 51.0213 54.7669 50.4567C54.7492 49.8929 54.9857 49.3512 55.4106 48.9825Z" fill="#BD10E0"/>
<path d="M32.6155 7.45153C32.2195 7.85843 31.6793 8.09123 31.1129 8.09903C30.5502 8.1082 30.0078 7.88761 29.6098 7.48771C29.2118 7.08781 28.9923 6.5428 29.0014 5.97733C28.9843 5.4095 29.2012 4.85976 29.601 4.45807C30.0007 4.05637 30.5478 3.83838 31.1129 3.85563C31.6781 3.84928 32.2225 4.06963 32.6255 4.46788C33.0285 4.86612 33.2568 5.40938 33.2599 5.97733C33.2215 6.52889 32.9938 7.04995 32.6155 7.45153Z" fill="#BD10E0"/>
<path d="M31.5419 63.2226C32.3118 63.2086 33.0293 63.6134 33.4183 64.2811C33.8073 64.9488 33.8073 65.7756 33.4183 66.4433C33.0293 67.111 32.3118 67.5157 31.5419 67.5017C30.9756 67.4939 30.4353 67.2611 30.0393 66.8542C29.6514 66.4624 29.4329 65.9327 29.4312 65.38C29.4248 64.8121 29.6441 64.2651 30.0405 63.8602C30.4368 63.4552 30.9774 63.2258 31.5426 63.2226H31.5419Z" fill="#BD10E0"/>
<path d="M5.81206 48.4799C6.97589 48.5145 7.92204 49.434 7.99529 50.6016C8.00055 51.1945 7.76848 51.7647 7.35123 52.1839C6.93399 52.6032 6.36658 52.8364 5.77653 52.8311C4.60283 52.8024 3.65815 51.8531 3.62952 50.6737C3.6592 49.475 4.61908 48.5101 5.81206 48.4799V48.4799Z" fill="#BD10E0"/>
<path d="M7.2798 22.2663C6.88377 22.6732 6.34352 22.906 5.77717 22.9138C5.21528 22.9194 4.67442 22.6994 4.27454 22.3027C3.86942 21.9046 3.63773 21.3615 3.63016 20.7921C3.62103 20.2267 3.84055 19.6817 4.23853 19.2818C4.6365 18.8819 5.17889 18.6613 5.74164 18.6704C6.90156 18.6657 7.85391 19.5907 7.88865 20.7557C7.92754 21.3265 7.70301 21.8836 7.2798 22.2663Z" fill="#BD10E0"/>
<path d="M29.3571 0.368446C30.9947 -0.113894 32.7642 0.269985 34.0583 1.38798C35.3524 2.50619 35.9947 4.20703 35.7653 5.90653C35.6936 6.22975 35.7294 6.33835 36.0153 6.48173C40.5956 9.10883 45.284 11.804 49.8288 14.429L53.1208 16.3352C54.1734 15.469 55.524 15.0558 56.8786 15.1849C59.1328 15.3947 60.9738 17.0831 61.3874 19.3196C61.8248 21.5895 60.6562 23.8646 58.5612 24.8206C58.1656 25.0004 58.0954 25.1446 58.0954 25.5755C58.1309 31.5443 58.1305 37.7298 58.1305 44.4895C58.1305 44.9206 58.1664 45.0297 58.5241 45.1731C60.3311 45.8781 61.534 47.6123 61.5661 49.5599C61.75 51.5437 60.6552 53.4249 58.8444 54.2366C57.1458 55.2315 55.0133 55.0742 53.4772 53.8411C53.1909 53.6255 53.0827 53.6255 52.6891 53.8411C46.7129 57.3648 41.4528 60.421 36.6217 63.2259C36.2432 63.3436 36.0229 63.7395 36.1208 64.1253C36.2755 65.4493 35.8917 66.78 35.0563 67.8157C34.2208 68.8514 33.0045 69.5044 31.6833 69.6263C31.494 69.656 31.3024 69.6684 31.111 69.6624C28.5437 69.6695 26.3831 67.7312 26.1003 65.1673V65.097C26.0459 64.946 26.0459 64.7801 26.1003 64.6292C26.3899 63.8384 26.0283 63.6231 25.2057 63.1556C25.1431 63.0955 25.071 63.0462 24.9919 63.011C21.235 60.89 17.4052 58.661 13.7194 56.5393C12.2516 55.7126 10.8209 54.8853 9.38931 54.0579C9.20319 53.9762 9.02346 53.8805 8.8522 53.7708C7.25034 55.3215 4.80729 55.5878 2.91177 54.4183C1.21743 53.5547 0.202502 51.7553 0.334625 49.8509C0.333258 47.8777 1.52179 46.1007 3.34048 45.3567C3.69466 45.2523 3.91175 44.8937 3.84146 44.5296C3.80593 38.3809 3.80533 31.9457 3.80533 25.4358C3.80532 25.0048 3.73447 24.933 3.37662 24.7532C1.55771 24.0093 0.369082 22.2314 0.370758 20.2581C0.227759 18.2455 1.35966 16.3602 3.19791 15.5481C4.94793 14.6567 7.0579 14.8962 8.56509 16.1585C8.60271 16.1585 8.63699 16.1931 8.67252 16.2288C8.88768 16.3687 8.88813 16.3691 9.03091 16.2991C13.5373 13.6378 18.156 10.9418 22.5934 8.35184L25.8131 6.48173C25.4197 3.4614 26.7448 1.12372 29.3571 0.368446ZM31.2204 62.5384C30.0595 62.5595 29.1297 63.5114 29.1295 64.678C29.1295 65.8448 30.0594 66.7966 31.2204 66.8177C31.9902 66.8316 32.7074 66.4267 33.0963 65.7591C33.4853 65.0914 33.4853 64.2646 33.0963 63.597C32.7073 62.9294 31.9901 62.5245 31.2204 62.5384ZM10.4645 48.6595L10.4987 48.6604V51.3206L27.5319 61.137C27.6542 61.0296 27.7861 60.9338 27.9254 60.8499C28.373 60.5154 28.8527 60.226 29.3571 59.9866C29.6433 59.8424 29.6793 59.771 29.6794 59.4114C29.6459 57.182 29.61 54.9159 29.61 52.7229V49.3421C25.4209 48.9183 21.6205 46.6876 19.196 43.2288L10.4645 48.6595ZM42.8503 43.1575C40.4623 46.5976 36.7248 48.8482 32.5797 49.3421H32.6159V59.7073C32.7428 59.7866 32.8744 59.8589 33.0094 59.9231C33.4985 60.1339 33.9561 60.4118 34.3688 60.7493C34.6913 61.0005 34.7987 61.0009 35.192 60.7854C40.7031 57.5122 45.8567 54.5282 50.8669 51.6155C51.5822 51.2166 51.7611 51.0361 51.5465 50.4251C51.4387 50.036 51.4387 49.6248 51.5465 49.2356C51.5874 49.0585 51.6104 48.8773 51.6159 48.6956C51.6174 48.5721 51.5941 48.4491 51.5465 48.3352C49.0777 46.8247 46.5359 45.3147 44.067 43.8763L42.8503 43.1575ZM5.45474 47.7972C4.26212 47.8274 3.30232 48.7912 3.27213 49.9895C3.30076 51.1689 4.24589 52.118 5.41959 52.1468C6.00941 52.1519 6.57668 51.9194 6.9938 51.5003C7.41105 51.081 7.64359 50.5102 7.63834 49.9173C7.56488 48.7499 6.61838 47.8308 5.45474 47.7962V47.7972ZM56.5202 47.6888C55.9702 47.6906 55.4433 47.9104 55.0534 48.3001V48.2991C54.6484 48.6866 54.4157 49.2226 54.4088 49.7845C54.4021 50.3462 54.6219 50.8872 55.0172 51.2845C55.4134 51.6913 55.9538 51.9242 56.5202 51.9319C57.0832 51.9527 57.6307 51.7414 58.0358 51.3479C58.4408 50.9545 58.6691 50.412 58.6676 49.846C58.6555 48.6736 57.7227 47.7205 56.5563 47.6888H56.5202ZM27.2126 36.219C27.2419 36.3241 27.2536 36.4334 27.2477 36.5423C27.2853 37.0812 27.3196 37.5488 27.3551 38.052C27.5236 40.4502 28.1815 42.7884 29.2878 44.9202C29.7886 45.8545 30.3972 46.3938 30.9342 46.3938C31.5783 46.3935 32.1143 45.6751 32.4723 45.0999C34.0829 42.3671 34.5124 39.2385 34.6559 36.2181L27.2126 36.219ZM6.81412 25.0706V27.4075H6.81509V44.8479C6.8154 44.92 6.92281 45.03 7.02994 45.0999C7.49521 45.3875 7.99596 45.639 8.49673 45.8909L8.92642 46.1058L17.7292 40.6409C16.1888 36.9038 16.2277 32.6973 17.8366 28.9895L8.96158 23.8479L6.81412 25.0706ZM44.0309 28.8821C45.6756 32.613 45.7523 36.8529 44.2448 40.6419L45.4294 41.3255C47.9699 42.8354 50.6175 44.4181 53.195 45.928C53.2694 45.9158 53.3415 45.8918 53.4088 45.8577L54.8024 45.1028C54.9097 45.0307 55.0174 44.9922 55.1247 44.9222V25.3225L52.7985 23.9925L44.0309 28.8821ZM37.6256 36.2181C37.5594 39.4151 36.8659 42.5679 35.5856 45.4954C37.6493 44.5639 39.4017 43.053 40.6315 41.1448C41.8485 39.3465 42.4928 37.5481 42.3493 36.2181H37.6256ZM19.6618 36.2181C19.8764 40.3172 23.0612 44.0918 26.1745 45.3518C24.9431 42.4618 24.2753 39.361 24.2067 36.2181H19.6618ZM30.8981 23.5628C30.182 23.5264 29.5729 24.0661 29.1794 25.1448C28.5174 26.8841 27.9559 28.6608 27.4977 30.4651C27.3574 31.1642 27.2738 31.8736 27.2477 32.5862C27.2477 32.8018 27.2126 32.9819 27.2126 33.1975H34.4049L34.6198 33.1995C34.3335 29.9992 33.8698 27.5182 32.6159 25.1809C32.1151 24.2459 31.685 23.5631 30.8981 23.5628ZM26.1383 24.5315C22.8824 25.9336 20.0188 29.7449 19.7331 33.1643H24.1706C24.2423 32.7655 24.3147 32.3702 24.3503 31.9749C24.4831 30.8154 24.6738 29.6629 24.9225 28.5227C25.1971 27.3792 25.5318 26.2511 25.9245 25.1429C25.9955 24.9273 26.0696 24.7471 26.1393 24.5315H26.1383ZM35.6217 24.4954C36.7775 27.2459 37.4444 30.1794 37.5905 33.1614H42.278C41.848 29.1702 38.6276 25.5384 35.6217 24.4954ZM27.2838 9.1038C27.1306 9.13504 26.985 9.196 26.8551 9.28348C21.5594 12.4118 16.0835 15.5765 10.6442 18.7405C10.2871 18.956 10.2533 19.0644 10.3229 19.4241C10.4053 19.7289 10.4171 20.0485 10.3581 20.3587V20.8987C10.3851 21.0652 10.4458 21.2247 10.5368 21.3665C12.9346 22.7693 15.3297 24.1355 17.8376 25.6097L19.3044 26.4729C21.683 23.2164 25.2975 21.0945 29.2887 20.6116V18.2747C29.2887 15.8298 29.2884 13.5278 29.3239 11.1907H29.3229C29.3591 10.22 29.2511 9.96787 28.5719 9.85868C28.1987 9.77143 27.8614 9.57059 27.6061 9.28348C27.4633 9.17358 27.3911 9.1038 27.2838 9.1038ZM35.0553 9.35673C34.3754 8.96123 34.1608 8.96166 33.7672 9.39286C33.4382 9.71252 33.0285 9.93629 32.5827 10.0403C32.3306 10.1124 32.2614 10.148 32.2614 10.6155V20.2161C32.2614 20.3238 32.2965 20.4677 32.2965 20.5755C36.3788 20.937 40.1145 23.0302 42.567 26.3294L43.8551 25.6106C46.324 24.2442 48.8619 22.8036 51.3698 21.4036C51.3977 21.3211 51.4207 21.2368 51.4391 21.1516H51.4381C51.4744 20.5762 51.4386 19.9646 51.4811 19.3528V18.8499C51.3021 18.7421 51.1224 18.6344 50.9079 18.5266C49.5836 17.7721 48.2949 17.0163 46.9713 16.261C43.071 13.9959 39.026 11.694 35.0553 9.35673ZM56.4128 18.1331C55.8552 18.1199 55.3164 18.3341 54.9186 18.7268C54.5208 19.1197 54.2979 19.6576 54.3014 20.2181V20.4339C54.3277 20.9365 54.5441 21.4131 54.9108 21.764C55.2975 22.1848 55.8438 22.4212 56.4137 22.4124C57.5764 22.4034 58.5171 21.4586 58.527 20.2903C58.5367 19.1219 57.6114 18.1616 56.4489 18.1331H56.4128ZM5.41959 17.9876C4.85684 17.9784 4.31366 18.199 3.91568 18.5989C3.51798 18.9987 3.29822 19.5435 3.30728 20.1087C3.31504 20.6776 3.54704 21.2205 3.95181 21.6184C4.35169 22.0151 4.89286 22.2353 5.45474 22.2298C6.02106 22.2219 6.56167 21.9892 6.95767 21.5823V21.5833C7.35247 21.1812 7.57161 20.6374 7.56607 20.0725C7.53134 18.9077 6.57929 17.9831 5.41959 17.9876ZM30.7907 3.17216C30.2257 3.1548 29.6787 3.37216 29.279 3.77372C28.8792 4.17542 28.662 4.72543 28.6794 5.29325C28.6702 5.85872 28.8898 6.40409 29.2878 6.80399C29.6856 7.20381 30.2281 7.4244 30.7907 7.41532C31.3573 7.40771 31.8984 7.17493 32.2946 6.76786H32.2936C32.6717 6.36618 32.8996 5.84477 32.9381 5.29325C32.935 4.72543 32.7062 4.18265 32.3034 3.78446C31.9004 3.38622 31.3559 3.16581 30.7907 3.17216Z" fill="#2721AB"/>
</g>
</svg>
