<svg width="18" height="18" viewBox="0 0 18 18" fill="none" xmlns="http://www.w3.org/2000/svg">
<path d="M13.5469 13.5479C13.7449 13.3499 14.0665 13.3491 14.2646 13.5469L17.8516 17.1338C18.0494 17.3319 18.0486 17.6535 17.8506 17.8516C17.6526 18.049 17.3327 18.0491 17.1348 17.8516L13.5469 14.2646C13.3492 14.0667 13.3494 13.7459 13.5469 13.5479ZM8 0.00976562C12.0203 0.213375 15.2176 3.53756 15.2178 7.6084L15.208 8C15.0044 12.0204 11.6794 15.2178 7.6084 15.2178L7.2168 15.208C3.32631 15.0106 0.206806 11.8906 0.00976562 8L0 7.6084C0.000210786 3.40649 3.40649 0.000210789 7.6084 0L8 0.00976562ZM7.60938 1.01465C3.96745 1.01465 1.01465 3.96745 1.01465 7.60938L1.02344 7.94824C1.19442 11.32 3.89778 14.0234 7.26953 14.1943L7.60938 14.2031C11.1372 14.2028 14.0177 11.4322 14.1943 7.94824L14.2031 7.60938C14.2031 4.08131 11.4324 1.20012 7.94824 1.02344L7.60938 1.01465Z" fill="#50B8E4"/>
<mask id="mask0_69_248" style="mask-type:luminance" maskUnits="userSpaceOnUse" x="0" y="0" width="18" height="18">
<path d="M13.5469 13.5479C13.7449 13.3499 14.0665 13.3491 14.2646 13.5469L17.8516 17.1338C18.0494 17.3319 18.0486 17.6535 17.8506 17.8516C17.6526 18.049 17.3327 18.0491 17.1348 17.8516L13.5469 14.2646C13.3492 14.0667 13.3494 13.7459 13.5469 13.5479ZM8 0.00976562C12.0203 0.213375 15.2176 3.53756 15.2178 7.6084L15.208 8C15.0044 12.0204 11.6794 15.2178 7.6084 15.2178L7.2168 15.208C3.32631 15.0106 0.206806 11.8906 0.00976562 8L0 7.6084C0.000210786 3.40649 3.40649 0.000210789 7.6084 0L8 0.00976562ZM7.60938 1.01465C3.96745 1.01465 1.01465 3.96745 1.01465 7.60938L1.02344 7.94824C1.19442 11.32 3.89778 14.0234 7.26953 14.1943L7.60938 14.2031C11.1372 14.2028 14.0177 11.4322 14.1943 7.94824L14.2031 7.60938C14.2031 4.08131 11.4324 1.20012 7.94824 1.02344L7.60938 1.01465Z" fill="white"/>
</mask>
<g mask="url(#mask0_69_248)">
</g>
</svg>
