<svg width="18" height="18" viewBox="0 0 18 18" fill="none" xmlns="http://www.w3.org/2000/svg">
<path d="M10.4264 0C11.1423 8.76384e-05 11.725 0.575454 11.7252 1.2832V2.49316C11.7252 2.65877 11.8728 2.87049 12.0289 2.92969C12.0464 2.93635 12.3855 3.06607 12.7838 3.29395C13.189 3.52514 13.4701 3.74919 13.482 3.75879C13.6118 3.86289 13.871 3.88335 14.0152 3.80078L15.0768 3.19531C15.376 3.0245 15.7261 2.97987 16.0611 3.06836C16.3969 3.15716 16.6773 3.36924 16.8502 3.66504L17.8268 5.33594C17.9996 5.63138 18.0442 5.97699 17.9547 6.30859C17.8648 6.64015 17.6505 6.91688 17.3512 7.08789L16.2906 7.69336C16.1461 7.77576 16.0336 8.0081 16.0602 8.1709C16.063 8.18798 16.1178 8.53152 16.1178 9C16.1178 9.46668 16.0635 9.81017 16.0602 9.8291C16.0336 9.9921 16.1461 10.2242 16.2906 10.3066L17.3512 10.9121C17.6504 11.0827 17.8648 11.3596 17.9547 11.6914C18.0443 12.0227 17.9994 12.3684 17.8268 12.6641L16.8502 14.335C16.6775 14.6306 16.3969 14.8428 16.0611 14.9316C15.7259 15.0201 15.376 14.9755 15.0768 14.8047L14.0162 14.2002C13.8719 14.1178 13.6116 14.1372 13.482 14.2412C13.47 14.2512 13.1899 14.4758 12.7848 14.707C12.3859 14.9351 12.0457 15.0651 12.0289 15.0713C11.8728 15.1305 11.7252 15.3428 11.7252 15.5078V16.7168C11.7252 17.424 11.1423 18 10.4264 18H8.47422C7.75826 18 7.1754 17.424 7.1754 16.7168V15.5078C7.1754 15.3426 7.02772 15.1305 6.87168 15.0713C6.85752 15.0661 6.51658 14.9362 6.11583 14.707C5.71165 14.4762 5.43188 14.2519 5.41856 14.2412C5.28925 14.1372 5.02991 14.1175 4.88536 14.2002L3.82383 14.8047C3.20342 15.1579 2.40771 14.9474 2.04942 14.335L1.07383 12.6641C0.901101 12.3685 0.855113 12.0227 0.944927 11.6914C1.03477 11.3595 1.24924 11.0829 1.54844 10.9121L2.60997 10.3066C2.75428 10.2242 2.86597 9.9917 2.83946 9.8291C2.83652 9.81149 2.78184 9.46785 2.78184 9C2.78185 8.53382 2.83617 8.1907 2.83946 8.1709C2.86617 8.00812 2.75447 7.77579 2.60997 7.69336L1.54844 7.08789C1.24937 6.9171 1.0348 6.6405 0.944927 6.30859C0.855077 5.97728 0.901084 5.63169 1.07383 5.33594L2.04942 3.66504C2.22227 3.36946 2.50291 3.15717 2.83848 3.06836C3.17449 2.97976 3.52446 3.02451 3.82383 3.19531L4.88536 3.80078C5.03026 3.8832 5.28902 3.86281 5.41856 3.75879C5.43027 3.74925 5.71072 3.52507 6.11583 3.29395C6.51641 3.06515 6.85752 2.93509 6.87168 2.92969C7.02767 2.87038 7.1754 2.65809 7.1754 2.49316V1.2832C7.1754 0.575737 7.75748 0.000230654 8.47325 0H10.4264ZM8.47325 0.636719C8.11255 0.636732 7.81895 0.926808 7.81895 1.2832V2.49316C7.81895 2.91896 7.50415 3.37201 7.10215 3.52441C7.0972 3.52611 6.79091 3.64315 6.43809 3.84473C6.08418 4.04691 5.83369 4.24578 5.82481 4.25293C5.49069 4.52127 4.93655 4.56439 4.56309 4.35156L3.50059 3.74609C3.35055 3.66108 3.17449 3.63775 3.00547 3.68262C2.83581 3.72737 2.69487 3.83425 2.60801 3.98242L1.63145 5.65332C1.54488 5.80201 1.52159 5.97626 1.567 6.14355C1.61234 6.31115 1.72051 6.45151 1.87071 6.53711L2.21348 6.73242C2.21463 6.73306 2.28295 6.77108 2.93223 7.1416C3.30561 7.35436 3.54464 7.85094 3.47618 8.27148C3.47577 8.27408 3.4264 8.58375 3.42637 9C3.42637 9.41027 3.47444 9.71698 3.47618 9.72852C3.54439 10.1485 3.30546 10.6456 2.93223 10.8584L2.21543 11.2666C2.1658 11.2966 2.07027 11.3499 1.87168 11.4629C1.72149 11.5489 1.61332 11.6886 1.56797 11.8564C1.52243 12.0236 1.54562 12.1979 1.63243 12.3467L2.60899 14.0176C2.78918 14.3257 3.18965 14.4323 3.50254 14.2539C3.68023 14.1528 3.7827 14.0944 3.84629 14.0576L4.56309 13.6494C4.93521 13.4361 5.49018 13.4791 5.82481 13.7471C5.82766 13.75 6.08054 13.9512 6.43809 14.1553C6.79474 14.359 7.09852 14.4748 7.10313 14.4766C7.50533 14.629 7.81993 15.0824 7.81993 15.5078V16.7168C7.81993 17.0732 8.11354 17.3632 8.47422 17.3633H10.4264C10.7871 17.3633 11.0807 17.0732 11.0807 16.7168V15.5078C11.0807 15.0824 11.3964 14.629 11.7984 14.4766C11.8127 14.4713 12.1148 14.3537 12.4625 14.1553C12.8208 13.9509 13.0743 13.7495 13.0768 13.7471C13.4112 13.4791 13.9658 13.4363 14.3385 13.6494L15.399 14.2539C15.5495 14.3395 15.7261 14.3623 15.8951 14.3174C16.0646 14.2721 16.2056 14.1653 16.2926 14.0166L17.2691 12.3457C17.3555 12.1974 17.3781 12.0234 17.3326 11.8564C17.2871 11.6886 17.1793 11.5489 17.0289 11.4629L15.9684 10.8584C15.5951 10.6456 15.356 10.1491 15.4244 9.72852C15.4249 9.72569 15.4732 9.41625 15.4732 9C15.4732 8.58799 15.4256 8.28081 15.4244 8.27148C15.3558 7.85128 15.5951 7.3544 15.9684 7.1416L17.0279 6.53711C17.1783 6.45151 17.2861 6.31115 17.3316 6.14355C17.3771 5.97643 17.354 5.80204 17.2672 5.65332L16.2916 3.98242C16.2048 3.8342 16.0636 3.72841 15.8941 3.68359C15.7239 3.63839 15.5482 3.66108 15.3981 3.74707L14.3365 4.35156C13.9639 4.56454 13.4088 4.52126 13.0748 4.25293C13.0724 4.25073 12.8198 4.04931 12.4615 3.84473C12.1076 3.64284 11.8007 3.525 11.7965 3.52344C11.3949 3.3711 11.0798 2.91878 11.0797 2.49316V1.2832C11.0797 0.926806 10.7861 0.636729 10.4254 0.636719H8.47325ZM9.44981 5.49902C11.4035 5.49911 12.9938 7.07021 12.9938 9.00098C12.9935 10.9315 11.4033 12.5028 9.44981 12.5029C7.49635 12.5028 5.90613 10.9315 5.90586 9.00098C5.90586 7.07026 7.49618 5.49919 9.44981 5.49902ZM9.44981 6.13574C7.85143 6.13591 6.5504 7.42146 6.5504 9.00098C6.55066 10.5801 7.85159 11.8651 9.44981 11.8652C11.0481 11.8651 12.348 10.5801 12.3482 9.00098C12.3482 7.42141 11.0483 6.13583 9.44981 6.13574Z" fill="#1F263E"/>
</svg>
