<svg width="18" height="18" viewBox="0 0 18 18" fill="none" xmlns="http://www.w3.org/2000/svg">
<ellipse cx="9.1584" cy="9.1723" rx="8.8116" ry="8.82591" fill="#F4F4F4"/>
<mask id="mask0_69_279" style="mask-type:luminance" maskUnits="userSpaceOnUse" x="0" y="0" width="18" height="18">
<ellipse cx="9.1584" cy="9.1723" rx="8.8116" ry="8.82591" fill="white"/>
</mask>
<g mask="url(#mask0_69_279)">
<path fill-rule="evenodd" clip-rule="evenodd" d="M7.94704 13.9239H1.73486C2.04524 14.4106 2.40297 14.8653 2.80283 15.2814H15.5127C15.9125 14.8653 16.2703 14.4106 16.5806 13.9239H7.94528H7.94704Z" fill="#FF1612"/>
<path fill-rule="evenodd" clip-rule="evenodd" d="M13.8508 1.70358C10.9825 -0.104354 7.33309 -0.104354 4.46472 1.70358H13.8508Z" fill="#FF1612"/>
<path fill-rule="evenodd" clip-rule="evenodd" d="M14.0517 3.061H2.80283C2.40347 3.47812 2.04578 3.93335 1.73486 4.4202H16.5806C16.2697 3.93335 15.912 3.47812 15.5127 3.061L14.0517 3.061Z" fill="#FF1612"/>
<path fill-rule="evenodd" clip-rule="evenodd" d="M7.94708 5.77762H1.02292C0.840317 6.21749 0.693565 6.67145 0.584106 7.13505H17.7315C17.622 6.67145 17.4753 6.21749 17.2927 5.77762H7.95237L7.94708 5.77762Z" fill="#FF1612"/>
<path fill-rule="evenodd" clip-rule="evenodd" d="M7.94708 11.2091H0.584106C0.693565 11.6727 0.840317 12.1266 1.02292 12.5665H17.2927C17.4753 12.1266 17.622 11.6727 17.7315 11.2091H7.94708V11.2091Z" fill="#FF1612"/>
<path fill-rule="evenodd" clip-rule="evenodd" d="M4.46289 16.6388C5.86261 17.525 7.48419 17.9962 9.14009 17.998H9.17533C10.8312 17.9962 12.4528 17.525 13.8525 16.6388H4.46289Z" fill="#FF1612"/>
<path fill-rule="evenodd" clip-rule="evenodd" d="M7.94708 8.49247H0.374389C0.358528 8.71665 0.346191 8.94259 0.346191 9.17207C0.346191 9.40154 0.358528 9.62572 0.374389 9.8499H17.9412C17.9571 9.62572 17.9694 9.39977 17.9694 9.17207C17.9694 8.94436 17.9571 8.71665 17.9412 8.49247H7.94708Z" fill="#FF1612"/>
<path fill-rule="evenodd" clip-rule="evenodd" d="M5.90453 0.969263L5.99265 0.935725C5.98031 0.895126 5.96621 0.856292 5.95388 0.817458C5.93802 0.875709 5.92215 0.918073 5.90453 0.969263Z" fill="#F4F4F4"/>
<path fill-rule="evenodd" clip-rule="evenodd" d="M8.52159 9.8499H9.3023V0.346155H9.15779C8.07311 0.344604 6.99754 0.544506 5.98561 0.935726L6.00852 1.00457C6.01124 1.01364 6.01454 1.02901 6.01845 1.04723C6.02976 1.0999 6.04618 1.17639 6.06844 1.19344C6.09017 1.21009 6.16475 1.20259 6.21821 1.19721C6.23845 1.19517 6.25566 1.19344 6.26582 1.19344H6.4632L6.30283 1.30994C6.29501 1.31547 6.2812 1.32352 6.26482 1.33306C6.21845 1.36008 6.15158 1.39905 6.14246 1.42645C6.1338 1.45248 6.16252 1.51685 6.18405 1.56508C6.19317 1.58551 6.201 1.60305 6.20414 1.61356L6.21686 1.65163C6.23371 1.70197 6.25033 1.75164 6.26582 1.80243L6.10721 1.68593C6.09972 1.68019 6.08837 1.67004 6.07496 1.65804C6.03473 1.62204 5.97592 1.56943 5.94684 1.56943C5.91803 1.56943 5.86098 1.6211 5.82129 1.65706C5.80757 1.66949 5.79593 1.68004 5.78823 1.68593L5.63315 1.80067L5.69483 1.61179C5.698 1.60273 5.70429 1.58834 5.71172 1.57133L5.71173 1.57131C5.73328 1.52204 5.76437 1.45092 5.75651 1.42468C5.74869 1.39858 5.68114 1.35896 5.63435 1.33152C5.61786 1.32186 5.60395 1.3137 5.59614 1.30818L5.43577 1.19168H5.63315C5.64332 1.19168 5.66053 1.19327 5.68077 1.19515C5.73422 1.20012 5.8088 1.20704 5.83053 1.19168C5.85168 1.17672 5.86756 1.10635 5.87941 1.05384L5.87941 1.05383L5.87942 1.05379C5.88435 1.03193 5.88859 1.01318 5.89221 1.0028L5.90279 0.967499C4.0653 1.70188 2.52652 3.03186 1.53223 4.74499L1.54809 4.79265C1.55171 4.80299 1.55578 4.82152 1.56052 4.84313C1.57197 4.89526 1.58735 4.9653 1.60977 4.98152C1.63276 4.99815 1.70569 4.99068 1.75821 4.98531L1.75823 4.98531C1.77819 4.98326 1.7952 4.98152 1.80539 4.98152H2.00453L1.84593 5.09803C1.837 5.10486 1.82025 5.11468 1.80081 5.12607L1.80078 5.12608L1.80074 5.12611L1.80073 5.12611C1.75492 5.15295 1.69421 5.18852 1.68555 5.21453C1.67641 5.24201 1.70794 5.31217 1.72989 5.36102C1.73755 5.37806 1.74404 5.39251 1.74724 5.40164C1.76273 5.45243 1.77935 5.5021 1.7962 5.55245L1.80892 5.59051L1.64855 5.47401C1.64089 5.46814 1.6292 5.45767 1.61542 5.44531C1.57531 5.40935 1.51749 5.35751 1.48994 5.35751C1.46212 5.35751 1.40246 5.41034 1.36182 5.44634L1.3618 5.44635L1.36176 5.44639C1.34834 5.45827 1.337 5.46832 1.32957 5.47401L1.17096 5.59051C1.18644 5.53977 1.20304 5.49016 1.21986 5.43988L1.21987 5.43985L1.21988 5.43982L1.21989 5.4398L1.2199 5.43977L1.21991 5.43975L1.21992 5.43972L1.21992 5.43972L1.21992 5.43972L1.21993 5.43969L1.23264 5.40164C1.23572 5.39134 1.24315 5.37414 1.25183 5.35406C1.27289 5.30529 1.3013 5.23954 1.29256 5.21453V5.20394C0.88614 6.0082 0.605592 6.87026 0.460742 7.75992C0.465345 7.78658 0.476896 7.81154 0.494226 7.83229C0.515957 7.84894 0.590538 7.84144 0.64399 7.83606C0.66423 7.83402 0.681441 7.83229 0.691606 7.83229H0.888986L0.888961 7.83231C0.8361 7.87114 0.783238 7.90997 0.728615 7.94703C0.713125 7.95754 0.694518 7.96862 0.675566 7.9799C0.627676 8.00841 0.577582 8.03824 0.570006 8.06353C0.562669 8.08803 0.589271 8.15162 0.609778 8.20064C0.618826 8.22227 0.626688 8.24106 0.629925 8.25241C0.635528 8.27205 0.647071 8.30607 0.65957 8.34291C0.670656 8.37558 0.682494 8.41048 0.691606 8.43952L0.532997 8.32301C0.490483 8.28454 0.445761 8.24859 0.399061 8.21534C0.36482 8.53311 0.347173 8.85245 0.346191 9.17207C0.346191 9.39978 0.358528 9.62572 0.374389 9.8499H8.52159ZM7.86777 1.2005C7.87794 1.2005 7.89581 1.2021 7.91684 1.20398C7.97235 1.20894 8.04981 1.21587 8.06515 1.2005C8.07985 1.18578 8.09795 1.11737 8.11176 1.06514L8.11176 1.06514C8.11783 1.04221 8.12307 1.0224 8.12683 1.01163L8.18675 0.824519L8.24667 1.01163C8.25029 1.02197 8.25435 1.0405 8.2591 1.06211C8.27055 1.11424 8.28593 1.18428 8.30835 1.2005C8.33136 1.21715 8.40537 1.20965 8.4584 1.20427C8.47849 1.20223 8.49557 1.2005 8.50573 1.2005H8.70311L8.54274 1.317C8.53493 1.32253 8.52112 1.33058 8.50476 1.34011L8.50475 1.34012L8.50473 1.34012C8.45836 1.36715 8.39149 1.40611 8.38237 1.43351C8.3737 1.45955 8.40243 1.52391 8.42396 1.57214C8.43308 1.59257 8.4409 1.61011 8.44405 1.62062L8.50573 1.80949L8.34536 1.69299C8.3377 1.68712 8.32601 1.67664 8.31224 1.66429C8.27212 1.62832 8.2143 1.57649 8.18675 1.57649C8.15894 1.57649 8.09928 1.62932 8.05863 1.66532L8.05863 1.66532L8.0586 1.66535L8.05858 1.66536L8.05856 1.66539C8.04515 1.67726 8.03381 1.6873 8.02638 1.69299L7.86777 1.80949L7.92417 1.61179C7.92734 1.6012 7.93511 1.58331 7.94414 1.5625L7.94415 1.56249C7.96524 1.51391 7.99325 1.4494 7.98585 1.42468C7.97803 1.39858 7.91047 1.35896 7.86368 1.33152C7.84719 1.32186 7.83328 1.3137 7.82548 1.30818L7.66511 1.19168L7.86777 1.2005ZM7.91684 3.09831C7.89581 3.09627 7.87794 3.09454 7.86777 3.09454H7.67039L7.83076 3.21105C7.83882 3.21674 7.85337 3.22499 7.87055 3.23473C7.91727 3.2612 7.9834 3.29868 7.99114 3.32578C7.99858 3.35187 7.97023 3.4173 7.9491 3.46608C7.94021 3.48661 7.93259 3.5042 7.92945 3.51466C7.91888 3.54554 7.90875 3.57687 7.89862 3.6082L7.89861 3.60821L7.89861 3.60823L7.8986 3.60824L7.8986 3.60825L7.89859 3.60826L7.89859 3.60828L7.89859 3.60829L7.89858 3.6083L7.89858 3.60831L7.89857 3.60832L7.89857 3.60834L7.89856 3.60835L7.89856 3.60836L7.89856 3.60837L7.89855 3.60838L7.89855 3.6084L7.89854 3.60841L7.89854 3.60842L7.89853 3.60843L7.89853 3.60845L7.89853 3.60846L7.89852 3.60847L7.89852 3.60848L7.89851 3.60849C7.88841 3.63973 7.87831 3.67097 7.86777 3.70177L8.02638 3.58526C8.03494 3.57921 8.04867 3.56712 8.06478 3.55292C8.10509 3.51741 8.16031 3.46876 8.18675 3.46876C8.213 3.46876 8.26672 3.51671 8.30644 3.55214L8.30645 3.55215C8.32273 3.56668 8.33665 3.57911 8.34536 3.58526L8.50573 3.70177C8.49518 3.67093 8.48506 3.63966 8.47495 3.60838L8.4749 3.60823C8.46476 3.57689 8.45463 3.54555 8.44405 3.51466C8.44093 3.50423 8.43319 3.48656 8.42416 3.46593C8.40261 3.41672 8.37368 3.35066 8.38237 3.32578C8.3914 3.29995 8.45703 3.26183 8.50334 3.23494C8.52032 3.22508 8.5347 3.21673 8.54274 3.21105L8.70311 3.09454H8.50573C8.49557 3.09454 8.47849 3.09614 8.4584 3.09802C8.40537 3.10298 8.33136 3.10991 8.30835 3.09454C8.28587 3.07953 8.27047 3.00954 8.25901 2.95747L8.25901 2.95747L8.25901 2.95746L8.25901 2.95745C8.2543 2.93607 8.25026 2.91771 8.24667 2.90743C8.23698 2.87566 8.22685 2.84433 8.21671 2.813C8.20658 2.78167 8.19645 2.75033 8.18675 2.71856C8.17706 2.75033 8.16693 2.78166 8.1568 2.81299C8.14666 2.84432 8.13653 2.87566 8.12683 2.90743C8.1231 2.91813 8.11791 2.9374 8.1119 2.95972L8.11189 2.95974C8.09806 3.0111 8.07989 3.07855 8.06515 3.09454C8.04981 3.11119 7.97236 3.10369 7.91684 3.09831L7.91684 3.09831ZM7.86777 4.99035C7.87794 4.99035 7.89581 4.99208 7.91684 4.99412C7.97235 4.99949 8.04981 5.00699 8.06515 4.99035C8.07983 4.97443 8.0979 4.90666 8.1117 4.85487L8.11171 4.85486L8.11171 4.85484C8.1178 4.832 8.12306 4.81228 8.12683 4.80148L8.18675 4.61437L8.24667 4.80148C8.25029 4.81182 8.25435 4.83035 8.2591 4.85196C8.27055 4.90409 8.28593 4.97413 8.30835 4.99035C8.33136 5.00699 8.40537 4.99949 8.4584 4.99412C8.47849 4.99208 8.49557 4.99035 8.50573 4.99035H8.70311L8.54274 5.10685C8.5338 5.1137 8.51703 5.12353 8.49755 5.13493L8.49754 5.13494C8.45174 5.16178 8.39103 5.19734 8.38237 5.22335C8.3737 5.24939 8.40243 5.31375 8.42396 5.36199C8.43308 5.38242 8.4409 5.39996 8.44405 5.41046L8.50573 5.59934L8.34536 5.48284C8.3377 5.47697 8.32601 5.46649 8.31224 5.45414C8.27212 5.41817 8.2143 5.36633 8.18675 5.36633C8.15894 5.36633 8.09928 5.41917 8.05863 5.45517C8.04519 5.46707 8.03383 5.47713 8.02638 5.48284L7.86777 5.59934L7.92417 5.40164C7.92734 5.39105 7.9351 5.37316 7.94414 5.35235L7.94415 5.35234C7.96524 5.30375 7.99325 5.23924 7.98585 5.21453C7.97844 5.18978 7.91732 5.15375 7.87112 5.12651C7.85142 5.1149 7.83443 5.10489 7.82548 5.09803L7.66511 4.98152L7.86777 4.99035ZM7.91684 6.88816C7.89581 6.88612 7.87794 6.88439 7.86777 6.88439L7.67039 6.87733L7.83076 7.00089C7.83882 7.00659 7.85337 7.01484 7.87055 7.02457L7.87056 7.02458C7.91727 7.05105 7.9834 7.08853 7.99114 7.11563C7.99839 7.14106 7.97661 7.19142 7.95539 7.24048C7.94568 7.26293 7.93609 7.28511 7.92945 7.3045C7.91888 7.33539 7.90875 7.36672 7.89862 7.39805C7.88848 7.42938 7.87835 7.46072 7.86777 7.49161L8.02638 7.37511C8.03493 7.36907 8.04865 7.35698 8.06475 7.3428L8.06477 7.34278L8.06478 7.34277C8.10509 7.30726 8.16031 7.25861 8.18675 7.25861C8.213 7.25861 8.26672 7.30655 8.30644 7.34199C8.32272 7.35652 8.33665 7.36895 8.34536 7.37511L8.50573 7.49161C8.48458 7.42983 8.45463 7.33981 8.44405 7.3045C8.44093 7.29407 8.43319 7.27641 8.42416 7.25577L8.42415 7.25577L8.42415 7.25575L8.42414 7.25574C8.40259 7.20653 8.37368 7.1405 8.38237 7.11563C8.3914 7.0898 8.45703 7.05168 8.50334 7.02479L8.50336 7.02477C8.52033 7.01492 8.53471 7.00657 8.54274 7.00089L8.70311 6.88439H8.50573C8.49557 6.88439 8.47849 6.88599 8.4584 6.88787C8.40537 6.89283 8.33136 6.89976 8.30835 6.88439C8.28587 6.86938 8.27047 6.79938 8.25901 6.74732L8.25901 6.74731C8.2543 6.72592 8.25026 6.70756 8.24667 6.69728C8.23698 6.66551 8.22685 6.63418 8.21671 6.60284C8.20658 6.57151 8.19645 6.54018 8.18675 6.50841C8.17706 6.54018 8.16693 6.57151 8.1568 6.60283C8.14666 6.63417 8.13653 6.6655 8.12683 6.69728C8.12311 6.70795 8.11793 6.72715 8.11194 6.74939L8.11192 6.74946L8.1119 6.74956L8.11189 6.74959C8.09806 6.80095 8.07989 6.8684 8.06515 6.88439C8.04981 6.90104 7.97235 6.89353 7.91684 6.88816ZM7.86777 8.7802C7.87794 8.7802 7.89581 8.78193 7.91684 8.78396C7.97235 8.78934 8.04981 8.79684 8.06515 8.7802C8.07983 8.76427 8.0979 8.6965 8.11171 8.6447C8.1178 8.62186 8.12306 8.60213 8.12683 8.59132L8.18675 8.40421L8.24667 8.59132C8.25029 8.60167 8.25435 8.6202 8.2591 8.6418C8.27055 8.69393 8.28593 8.76397 8.30835 8.7802C8.33136 8.79684 8.40537 8.78934 8.4584 8.78396C8.47849 8.78193 8.49557 8.7802 8.50573 8.7802H8.70311L8.54274 8.89493C8.5338 8.90178 8.51703 8.91161 8.49755 8.92301L8.49754 8.92302L8.49753 8.92303C8.45173 8.94986 8.39103 8.98543 8.38237 9.01144C8.3737 9.03747 8.40243 9.10183 8.42396 9.15007C8.43308 9.1705 8.4409 9.18804 8.44405 9.19854L8.50573 9.38742L8.34536 9.27092C8.33771 9.26506 8.32604 9.25459 8.31228 9.24225L8.31226 9.24224L8.31224 9.24222C8.27212 9.20625 8.2143 9.15442 8.18675 9.15442C8.15894 9.15442 8.09928 9.20725 8.05863 9.24325C8.04519 9.25515 8.03383 9.26521 8.02638 9.27092L7.86777 9.38742L7.92417 9.19148C7.92734 9.18089 7.93511 9.163 7.94414 9.14219C7.96524 9.0936 7.99325 9.02909 7.98585 9.00437C7.97844 8.97962 7.91732 8.9436 7.87112 8.91636L7.8711 8.91635C7.85141 8.90474 7.83443 8.89473 7.82548 8.88787L7.66511 8.77314L7.86777 8.7802ZM6.79955 2.14335C6.77947 2.14131 6.76239 2.13958 6.75222 2.13958L6.55484 2.13605L6.71345 2.25255C6.72119 2.25772 6.73395 2.26498 6.74901 2.27355L6.74904 2.27357L6.74905 2.27357C6.79575 2.30015 6.8645 2.33927 6.87382 2.36729C6.88302 2.39491 6.8511 2.46665 6.82914 2.51603C6.82163 2.53291 6.81529 2.54717 6.81214 2.55616L6.75222 2.74327L6.91083 2.62677C6.91939 2.62072 6.93312 2.60862 6.94924 2.59443C6.98955 2.55891 7.04477 2.51027 7.0712 2.51027C7.09745 2.51027 7.15117 2.55821 7.19088 2.59365L7.19089 2.59365L7.1909 2.59366L7.19091 2.59367L7.19091 2.59367C7.20718 2.60819 7.2211 2.62061 7.22981 2.62677L7.39018 2.74327C7.36904 2.68149 7.34789 2.61794 7.3285 2.55616C7.32539 2.54726 7.31925 2.53307 7.31198 2.51626L7.31197 2.51626C7.29042 2.46646 7.25892 2.39368 7.26682 2.36729C7.27483 2.34056 7.34445 2.30068 7.39156 2.27369L7.39158 2.27368C7.4067 2.26502 7.41949 2.2577 7.42719 2.25255L7.5858 2.13605H7.38842C7.37826 2.13605 7.36105 2.13778 7.34081 2.13982C7.28735 2.14519 7.21277 2.15269 7.19104 2.13605C7.16878 2.119 7.15236 2.0425 7.14105 1.98983C7.13714 1.97162 7.13384 1.95625 7.13112 1.94718C7.10998 1.88363 7.09059 1.82185 7.0712 1.7583L7.00952 1.95071C7.00679 1.95982 7.00359 1.97529 6.9998 1.99362L6.9998 1.99364C6.9889 2.04631 6.97313 2.12256 6.9496 2.13958C6.9266 2.15622 6.85259 2.14872 6.79955 2.14335ZM6.75222 4.03539C6.76239 4.03539 6.77947 4.03712 6.79955 4.03915C6.85259 4.04453 6.9266 4.05203 6.9496 4.03539C6.97319 4.01832 6.98899 3.9427 6.99988 3.89052L6.99989 3.89049C7.00364 3.87252 7.00681 3.85732 7.00952 3.84828L7.0712 3.6594C7.09059 3.72295 7.10998 3.78473 7.13112 3.84828C7.13382 3.85728 7.13709 3.87248 7.14096 3.89048L7.14097 3.89052L7.14097 3.89052C7.15228 3.94312 7.16873 4.01961 7.19104 4.03539C7.21277 4.05075 7.28735 4.04383 7.34081 4.03886C7.36105 4.03698 7.37826 4.03539 7.38842 4.03539H7.5858L7.42719 4.15012C7.41839 4.15649 7.40293 4.16558 7.38496 4.17615L7.38496 4.17615L7.38496 4.17615C7.3382 4.20364 7.27446 4.24112 7.26682 4.26662C7.25896 4.29287 7.29005 4.36398 7.3116 4.41326C7.31904 4.43027 7.32534 4.44467 7.3285 4.45373C7.34394 4.50436 7.36051 4.55387 7.3773 4.60404L7.37731 4.60407L7.37732 4.60409L7.37733 4.60412L7.37734 4.60415L7.37735 4.60417L7.37735 4.6042L7.37736 4.60422L7.37737 4.60425L7.37738 4.60427L7.37739 4.6043L7.3774 4.60433L7.37741 4.60435L7.37741 4.60438L7.37742 4.6044L7.37743 4.60443L7.37744 4.60445L7.37745 4.60448L7.37746 4.60451L7.37747 4.60453L7.39018 4.64261L7.22981 4.52611C7.22216 4.52024 7.21047 4.50976 7.19669 4.49741C7.15657 4.46144 7.09875 4.4096 7.0712 4.4096C7.04339 4.4096 6.98373 4.46244 6.94308 4.49844C6.92964 4.51034 6.91828 4.5204 6.91083 4.52611L6.75222 4.64261C6.76192 4.61083 6.77205 4.5795 6.78219 4.54816C6.79232 4.51683 6.80245 4.4855 6.81214 4.45373C6.81533 4.4446 6.82183 4.43016 6.82948 4.41312L6.82948 4.41312C6.85144 4.36427 6.88297 4.29411 6.87382 4.26662C6.86491 4.23985 6.80175 4.20294 6.7554 4.17586C6.73759 4.16545 6.72226 4.15649 6.71345 4.15012L6.55484 4.03539H6.75222ZM6.79955 5.93467C6.77947 5.93279 6.76239 5.93119 6.75222 5.93119H6.55484L6.71345 6.04769C6.72077 6.05258 6.73258 6.05953 6.74657 6.06776L6.74659 6.06777C6.7933 6.09525 6.86433 6.13704 6.87382 6.1642C6.88298 6.19039 6.85139 6.26128 6.82943 6.31054L6.82943 6.31054C6.8218 6.32768 6.81533 6.3422 6.81214 6.35131C6.80245 6.38307 6.79232 6.4144 6.78219 6.44573L6.78218 6.44575C6.77205 6.47708 6.76192 6.50841 6.75222 6.54018L6.91083 6.42368C6.91828 6.41797 6.92964 6.40791 6.94309 6.39601C6.98373 6.36001 7.04339 6.30718 7.0712 6.30718C7.09875 6.30718 7.15657 6.35901 7.19668 6.39498L7.19669 6.39498C7.21047 6.40733 7.22215 6.41781 7.22981 6.42368L7.39018 6.54018L7.37746 6.5021C7.36062 6.45176 7.344 6.4021 7.3285 6.35131C7.32534 6.34224 7.31903 6.32795 7.31159 6.31107L7.31159 6.31106L7.31158 6.31104L7.31157 6.31102L7.31154 6.31096L7.31154 6.31096C7.29 6.2621 7.25897 6.19173 7.26682 6.1642C7.2749 6.13588 7.34571 6.0952 7.39284 6.06813L7.39286 6.06812L7.39291 6.06809L7.39296 6.06806L7.39305 6.06801C7.40752 6.05969 7.41974 6.05267 7.42719 6.04769L7.5858 5.93119H7.38842C7.37826 5.93119 7.36105 5.93292 7.34081 5.93496C7.28735 5.94034 7.21277 5.94784 7.19104 5.93119C7.16878 5.91414 7.15236 5.83765 7.14105 5.78498C7.13714 5.76676 7.13384 5.75139 7.13112 5.74232C7.10998 5.67877 7.09059 5.61699 7.0712 5.55344L7.00952 5.74232C7.00679 5.75145 7.00358 5.76706 6.99979 5.78557C6.98889 5.83865 6.97312 5.91549 6.9496 5.93119C6.9266 5.94656 6.85259 5.93963 6.79955 5.93467ZM6.75222 7.82523C6.76239 7.82523 6.77947 7.82696 6.79955 7.829C6.85259 7.83438 6.9266 7.84188 6.9496 7.82523C6.97319 7.80817 6.98899 7.73254 6.99988 7.68037L6.99988 7.68034L6.9999 7.68027C7.00365 7.66232 7.00682 7.64716 7.00952 7.63812C7.01863 7.61075 7.02742 7.58338 7.03615 7.55614L7.03616 7.55613L7.03616 7.55613L7.03616 7.55612L7.03616 7.55611L7.03617 7.5561L7.03617 7.55609L7.03617 7.55608L7.03618 7.55607L7.03618 7.55607L7.03618 7.55606L7.03618 7.55605L7.03619 7.55604L7.03619 7.55603L7.03619 7.55602L7.0362 7.55601L7.0362 7.55601L7.0362 7.556C7.04773 7.52006 7.05918 7.48437 7.0712 7.44925L7.08506 7.4936C7.09991 7.54125 7.115 7.58969 7.13112 7.63812C7.13382 7.64713 7.13709 7.66234 7.14097 7.68036L7.14097 7.68037C7.15228 7.73297 7.16873 7.80946 7.19104 7.82523C7.21277 7.8406 7.28735 7.83367 7.34081 7.82871C7.36105 7.82683 7.37826 7.82523 7.38842 7.82523H7.5858L7.42719 7.93997C7.41839 7.94634 7.40293 7.95543 7.38496 7.966C7.3382 7.99349 7.27446 8.03097 7.26682 8.05647C7.25914 8.08213 7.28869 8.15068 7.31014 8.20045L7.31015 8.20046L7.31015 8.20047C7.31821 8.21917 7.32513 8.23522 7.3285 8.24535L7.34556 8.29747L7.34558 8.29752C7.35911 8.33909 7.37619 8.39157 7.39018 8.43246L7.22981 8.31595C7.2211 8.30979 7.20717 8.29736 7.19089 8.28283C7.15118 8.24739 7.09745 8.19945 7.0712 8.19945C7.04477 8.19945 6.98955 8.2481 6.94924 8.28361C6.93312 8.29781 6.91939 8.3099 6.91083 8.31595L6.75222 8.43246L6.81214 8.24535C6.81552 8.2352 6.82259 8.21911 6.83083 8.20037C6.85269 8.1506 6.88278 8.08212 6.87382 8.05647C6.86491 8.03097 6.80172 7.99348 6.75538 7.96599C6.73757 7.95542 6.72226 7.94634 6.71345 7.93997L6.55484 7.82523H6.75222ZM1.80073 8.91243L1.80074 8.91243L1.80078 8.9124C1.82024 8.901 1.837 8.89118 1.84593 8.88434L2.00453 8.76961H1.80715C1.79696 8.76961 1.77994 8.77135 1.75997 8.77339C1.70745 8.77877 1.63452 8.78623 1.61154 8.76961C1.58911 8.75338 1.57373 8.68334 1.56228 8.63121C1.55754 8.60961 1.55347 8.59108 1.54986 8.58073L1.48994 8.39362C1.47936 8.42451 1.46923 8.45584 1.4591 8.48718C1.44896 8.51851 1.43883 8.54984 1.42826 8.58073C1.42552 8.58985 1.42232 8.60533 1.41853 8.62367C1.40764 8.67633 1.39186 8.75259 1.36834 8.76961C1.34533 8.78625 1.27132 8.77875 1.21828 8.77337C1.1982 8.77134 1.18112 8.76961 1.17096 8.76961H0.973577L1.13395 8.88434C1.14281 8.89113 1.15924 8.90101 1.1783 8.91248C1.22364 8.93975 1.28387 8.97599 1.29256 9.00084C1.3013 9.02585 1.27289 9.0916 1.25183 9.14038C1.24315 9.16046 1.23572 9.17766 1.23264 9.18795L1.21993 9.22601L1.21991 9.22605L1.2199 9.22608L1.2199 9.2261L1.21989 9.22613L1.21988 9.22614C1.20305 9.27644 1.18644 9.32607 1.17096 9.37683L1.32957 9.26033C1.33701 9.25463 1.34836 9.24457 1.3618 9.23267L1.36182 9.23265C1.40247 9.19666 1.46213 9.14382 1.48994 9.14382C1.51749 9.14382 1.5753 9.19566 1.61542 9.23163C1.6292 9.24398 1.64089 9.25446 1.64855 9.26033L1.80892 9.37683L1.7962 9.33877C1.77936 9.28842 1.76273 9.23875 1.74724 9.18795C1.74404 9.17882 1.73755 9.16438 1.72989 9.14733C1.70794 9.09849 1.67641 9.02833 1.68555 9.00084C1.69421 8.97484 1.75492 8.93927 1.80073 8.91243ZM1.84593 6.9903C1.83789 6.99598 1.82351 7.00434 1.80652 7.0142C1.76022 7.04109 1.69458 7.07921 1.68555 7.10504C1.67635 7.13137 1.70833 7.20387 1.7303 7.25366C1.73778 7.27062 1.7441 7.28494 1.74724 7.29391C1.75306 7.31057 1.7624 7.3394 1.77288 7.3717L1.77288 7.37171C1.78461 7.40788 1.79775 7.44839 1.80892 7.48102L1.64855 7.36452C1.63984 7.35836 1.62591 7.34594 1.60963 7.33141L1.60962 7.3314C1.56991 7.29596 1.51618 7.24802 1.48994 7.24802C1.4635 7.24802 1.40828 7.29666 1.36797 7.33217L1.36797 7.33218L1.36793 7.33221L1.36791 7.33223L1.36789 7.33224L1.36786 7.33227C1.35179 7.34643 1.3381 7.35848 1.32957 7.36452L1.17096 7.48102C1.19034 7.41924 1.21149 7.35569 1.23264 7.29391C1.23908 7.27509 1.2483 7.25366 1.25766 7.23189C1.27903 7.1822 1.30114 7.13082 1.29256 7.10504C1.28348 7.07777 1.21812 7.03998 1.17228 7.01348L1.17227 7.01348C1.15581 7.00396 1.14186 6.9959 1.13395 6.9903L0.973577 6.87733H1.17096C1.18112 6.87733 1.1982 6.87906 1.21828 6.8811C1.27132 6.88647 1.34533 6.89397 1.36834 6.87733C1.39193 6.86027 1.40772 6.78464 1.41861 6.73246C1.42237 6.71447 1.42554 6.69927 1.42826 6.69022L1.48994 6.50135C1.49963 6.53312 1.50976 6.56445 1.5199 6.59578C1.53003 6.62712 1.54016 6.65845 1.54986 6.69022C1.55345 6.7005 1.55749 6.71887 1.5622 6.74026C1.57365 6.79232 1.58905 6.86232 1.61154 6.87733C1.63452 6.89268 1.70745 6.88579 1.75997 6.88082C1.77994 6.87894 1.79696 6.87733 1.80715 6.87733H2.00453L1.84593 6.9903ZM5.68077 3.09125C5.66053 3.08921 5.64332 3.08748 5.63315 3.08748L5.43577 3.09278L5.59614 3.20928C5.6042 3.21498 5.61875 3.22322 5.63593 3.23296C5.68265 3.25944 5.74878 3.29692 5.75651 3.32402C5.76441 3.3517 5.73299 3.4237 5.71143 3.47308L5.71143 3.47309C5.70412 3.48982 5.69795 3.50396 5.69483 3.51289C5.68426 3.54378 5.67412 3.57511 5.66399 3.60645C5.65386 3.63778 5.64372 3.66911 5.63315 3.7L5.79352 3.5782C5.80221 3.57206 5.81593 3.55969 5.83199 3.54521L5.83199 3.5452C5.87131 3.50975 5.9246 3.4617 5.95213 3.4617C5.97985 3.4617 6.0346 3.51043 6.07451 3.54595C6.09041 3.56011 6.10396 3.57217 6.1125 3.5782L6.27111 3.69471C6.25173 3.63292 6.23058 3.56938 6.20943 3.5076C6.20631 3.49717 6.19857 3.4795 6.18954 3.45887L6.18953 3.45886L6.18953 3.45886L6.18953 3.45885L6.18952 3.45885L6.18952 3.45884L6.18952 3.45884L6.18952 3.45883L6.18951 3.45882C6.16797 3.40962 6.13906 3.34359 6.14775 3.31872C6.15677 3.29289 6.22241 3.25477 6.26872 3.22788C6.2857 3.21802 6.30008 3.20967 6.30812 3.20398L6.46849 3.08748H6.27111C6.26095 3.08748 6.24374 3.08908 6.2235 3.09096C6.17004 3.09592 6.09546 3.10285 6.07373 3.08748C6.05142 3.07171 6.03497 2.99522 6.02366 2.94262L6.02366 2.94262L6.02365 2.94257C6.01978 2.92457 6.01651 2.90937 6.01381 2.90037L5.95213 2.7115C5.94245 2.74323 5.93233 2.77452 5.92221 2.80581L5.9222 2.80586L5.92217 2.80594C5.91204 2.83727 5.9019 2.8686 5.89221 2.90037C5.8886 2.91071 5.88439 2.92905 5.87948 2.95041C5.86762 3.00203 5.85172 3.07125 5.83053 3.08748C5.8088 3.10413 5.73422 3.09663 5.68077 3.09125L5.68077 3.09125ZM5.63315 4.98329C5.64332 4.98329 5.66053 4.98502 5.68077 4.98706C5.73422 4.99243 5.8088 4.99993 5.83053 4.98329C5.85167 4.9671 5.86755 4.8973 5.87939 4.8452C5.88434 4.82346 5.88858 4.80481 5.89221 4.79441L5.95213 4.60731C5.9627 4.6382 5.97284 4.66953 5.98297 4.70086L5.983 4.70094C5.99312 4.73224 6.00325 4.76355 6.01381 4.79441C6.02136 4.81647 6.02734 4.84393 6.03327 4.87117C6.04395 4.92021 6.05447 4.96853 6.07373 4.98329C6.09546 4.99993 6.17004 4.99243 6.2235 4.98706C6.24374 4.98502 6.26095 4.98329 6.27111 4.98329H6.46849L6.30812 5.09979C6.29918 5.10664 6.2824 5.11647 6.26292 5.12788C6.21711 5.15472 6.1564 5.19028 6.14775 5.21629C6.13908 5.24233 6.16781 5.30669 6.18934 5.35493C6.19846 5.37536 6.20628 5.3929 6.20943 5.4034L6.22215 5.44147C6.23899 5.49182 6.25562 5.54148 6.27111 5.59228L6.1125 5.47577C6.10503 5.47005 6.09372 5.45994 6.08035 5.44798L6.08033 5.44796L6.08032 5.44794L6.08027 5.4479L6.08026 5.44789L6.08025 5.44788C6.04002 5.41189 5.98121 5.35927 5.95213 5.35927C5.92332 5.35927 5.86627 5.41095 5.82657 5.44691C5.81286 5.45933 5.80122 5.46988 5.79352 5.47577L5.63315 5.59228L5.69483 5.4034C5.698 5.39434 5.7043 5.37993 5.71173 5.36292C5.73328 5.31365 5.76437 5.24254 5.75651 5.21629C5.7491 5.19154 5.68799 5.15552 5.64179 5.12828C5.62209 5.11667 5.6051 5.10665 5.59614 5.09979L5.43577 4.98329H5.63315ZM5.68077 6.8811C5.66053 6.87906 5.64332 6.87733 5.63315 6.87733H5.43753L5.59614 6.99383C5.60419 6.99952 5.61874 7.00777 5.6359 7.01749L5.63593 7.01751C5.68265 7.04399 5.74878 7.08147 5.75651 7.10857C5.76377 7.134 5.74199 7.18436 5.72077 7.23342L5.72077 7.23343C5.71106 7.25588 5.70147 7.27805 5.69483 7.29744C5.68426 7.32833 5.67413 7.35966 5.66399 7.39099C5.65386 7.42232 5.64373 7.45366 5.63315 7.48455L5.79352 7.36805C5.80221 7.36191 5.81594 7.34953 5.83199 7.33505C5.87131 7.2996 5.9246 7.25155 5.95213 7.25155C5.97985 7.25155 6.0346 7.30028 6.07451 7.3358C6.09042 7.34996 6.10396 7.36201 6.1125 7.36805L6.27111 7.48455C6.26122 7.45303 6.24812 7.41417 6.23626 7.37896C6.22486 7.34516 6.21461 7.31474 6.20943 7.29744C6.20631 7.28701 6.19857 7.26935 6.18953 7.24871C6.16799 7.19951 6.13906 7.13344 6.14775 7.10857C6.15677 7.08274 6.22241 7.04462 6.26872 7.01773C6.2857 7.00787 6.30008 6.99952 6.30812 6.99383L6.46849 6.87733H6.27111C6.26095 6.87733 6.24374 6.87893 6.2235 6.88081C6.17004 6.88577 6.09546 6.89269 6.07373 6.87733C6.05142 6.86155 6.03497 6.78506 6.02366 6.73247L6.02365 6.73245C6.01978 6.71444 6.01651 6.69923 6.01381 6.69022L5.95213 6.50135C5.94244 6.53312 5.93231 6.56444 5.92217 6.59577C5.91204 6.62711 5.90191 6.65844 5.89221 6.69022C5.8886 6.70055 5.88439 6.7189 5.87948 6.74026C5.86762 6.79188 5.85172 6.8611 5.83053 6.87733C5.8088 6.89397 5.73422 6.88647 5.68077 6.8811ZM5.63315 8.77314C5.64332 8.77314 5.66053 8.77487 5.68077 8.7769H5.68077C5.73422 8.78228 5.8088 8.78978 5.83053 8.77314C5.85167 8.75694 5.86755 8.68714 5.87939 8.63505C5.88434 8.61331 5.88858 8.59465 5.89221 8.58426L5.95213 8.39715C5.9627 8.42804 5.97284 8.45937 5.98297 8.49071L5.983 8.49078C5.99312 8.52209 6.00325 8.5534 6.01381 8.58426C6.01653 8.59333 6.01983 8.6087 6.02374 8.62692C6.03505 8.67959 6.05147 8.75609 6.07373 8.77314C6.09546 8.78978 6.17004 8.78228 6.22349 8.7769H6.2235C6.24374 8.77487 6.26095 8.77314 6.27111 8.77314H6.46849L6.30812 8.88787C6.29918 8.89472 6.28241 8.90455 6.26294 8.91595L6.26292 8.91596C6.21712 8.9428 6.1564 8.97837 6.14775 9.00437C6.13908 9.03041 6.16781 9.09478 6.18934 9.14301C6.19846 9.16344 6.20628 9.18098 6.20943 9.19148L6.22214 9.22954C6.23899 9.27989 6.25561 9.32956 6.27111 9.38036L6.1125 9.26386C6.10501 9.25812 6.09366 9.24796 6.08025 9.23596C6.04002 9.19997 5.98121 9.14735 5.95213 9.14735C5.92332 9.14735 5.86627 9.19903 5.82658 9.23499L5.82656 9.23501L5.82654 9.23503C5.81284 9.24744 5.80121 9.25797 5.79352 9.26386L5.63315 9.38036L5.69483 9.19148C5.698 9.18242 5.7043 9.16802 5.71174 9.15101C5.73328 9.10173 5.76437 9.03062 5.75651 9.00437C5.7491 8.97962 5.68799 8.9436 5.64179 8.91636C5.62209 8.90475 5.6051 8.89473 5.59614 8.88787C5.56618 8.86493 5.4904 8.8102 5.43577 8.77314H5.63315ZM4.56698 2.14335C4.54674 2.14131 4.52953 2.13958 4.51936 2.13958L4.32198 2.13605L4.48236 2.25255C4.49027 2.25815 4.50422 2.26621 4.52068 2.27573L4.52069 2.27573C4.56653 2.30223 4.63189 2.34002 4.64096 2.36729C4.64974 2.39367 4.62103 2.4603 4.59993 2.50925L4.59992 2.50926L4.59992 2.50928C4.59138 2.52908 4.58409 2.54599 4.58105 2.55616C4.5599 2.61794 4.53875 2.68149 4.51936 2.74327L4.67797 2.62677C4.68653 2.62072 4.70026 2.60862 4.71638 2.59443C4.75669 2.55892 4.81191 2.51027 4.83834 2.51027C4.86459 2.51027 4.91831 2.55821 4.95803 2.59365C4.97431 2.60818 4.98824 2.62061 4.99695 2.62677L5.15732 2.74327C5.14675 2.71238 5.13662 2.68105 5.12648 2.64972L5.12646 2.64964C5.11633 2.61833 5.10621 2.58703 5.09564 2.55616C5.09251 2.5472 5.0862 2.53288 5.07872 2.51593L5.07871 2.51591C5.05674 2.46612 5.02476 2.39362 5.03396 2.36729C5.04299 2.34146 5.10862 2.30334 5.15493 2.27645L5.15494 2.27644C5.17192 2.26658 5.1863 2.25823 5.19433 2.25255L5.3547 2.13605H5.15732C5.14716 2.13605 5.13009 2.13778 5.11 2.13982L5.11 2.13982C5.05696 2.14519 4.98295 2.15269 4.95994 2.13605C4.93752 2.11983 4.92214 2.04979 4.91069 1.99766C4.90595 1.97605 4.90188 1.95752 4.89826 1.94718C4.88857 1.9154 4.87844 1.88407 4.8683 1.85274C4.85817 1.82141 4.84804 1.79007 4.83834 1.7583L4.77666 1.95071C4.77395 1.95978 4.77065 1.97515 4.76674 1.99336C4.75543 2.04603 4.739 2.12253 4.71674 2.13958C4.69501 2.15622 4.62043 2.14872 4.56698 2.14335ZM4.51936 4.03539C4.52953 4.03539 4.54674 4.03712 4.56698 4.03915L4.56698 4.03915C4.62044 4.04453 4.69501 4.05203 4.71674 4.03539C4.73907 4.01829 4.75552 3.94238 4.76683 3.89019C4.7707 3.87234 4.77397 3.85727 4.77666 3.84828L4.83834 3.6594C4.84804 3.69118 4.85817 3.72251 4.8683 3.75384C4.87844 3.78517 4.88857 3.8165 4.89826 3.84828C4.90185 3.85855 4.90589 3.87691 4.9106 3.89829L4.9106 3.8983L4.9106 3.89831L4.9106 3.89831C4.92206 3.95038 4.93746 4.02037 4.95994 4.03539C4.98295 4.05075 5.05696 4.04383 5.11 4.03886C5.13008 4.03698 5.14716 4.03539 5.15732 4.03539H5.3547L5.19433 4.15012C5.18535 4.157 5.16845 4.16706 5.14885 4.17871L5.14885 4.17871C5.10307 4.20594 5.0426 4.24191 5.03396 4.26662C5.02481 4.29282 5.0564 4.36371 5.07835 4.41297C5.08599 4.4301 5.09246 4.44462 5.09564 4.45373L5.15732 4.64261L4.99695 4.52611C4.9893 4.52024 4.97761 4.50976 4.96384 4.49741L4.96383 4.49741L4.96383 4.49741L4.96382 4.4974C4.9237 4.46143 4.86589 4.4096 4.83834 4.4096C4.81053 4.4096 4.75087 4.46244 4.71022 4.49844L4.71022 4.49844C4.69678 4.51034 4.68542 4.5204 4.67797 4.52611L4.51936 4.64261C4.53485 4.59183 4.55147 4.54219 4.56831 4.49187L4.56832 4.49182L4.58105 4.45373C4.58412 4.44346 4.59153 4.42644 4.60019 4.40658L4.60019 4.40657C4.62126 4.3582 4.64971 4.2929 4.64096 4.26662C4.63226 4.24048 4.57184 4.20468 4.52647 4.17779C4.50751 4.16656 4.49118 4.15688 4.48236 4.15012C4.46681 4.13821 4.43844 4.11822 4.40736 4.09632L4.40733 4.09629C4.37853 4.076 4.34741 4.05406 4.32198 4.03539H4.51936ZM4.56698 5.93467C4.54674 5.93279 4.52953 5.93119 4.51936 5.93119H4.32198L4.48236 6.04769C4.48997 6.05308 4.50318 6.06098 4.51884 6.07034L4.51888 6.07037L4.51891 6.07039L4.51893 6.0704C4.56484 6.09785 4.63177 6.13789 4.64096 6.1642C4.6497 6.1892 4.6213 6.25496 4.60023 6.30373C4.59156 6.32381 4.58413 6.34101 4.58105 6.35131L4.56833 6.38939L4.56832 6.38941L4.56831 6.38944L4.5683 6.38946L4.56829 6.38949L4.56828 6.38952L4.56827 6.38954L4.56827 6.38957L4.56826 6.38959C4.55143 6.43986 4.53484 6.48946 4.51936 6.54018L4.67797 6.42368C4.68542 6.41798 4.69678 6.40791 4.71022 6.39601C4.75087 6.36001 4.81053 6.30718 4.83834 6.30718C4.86589 6.30718 4.92371 6.35901 4.96383 6.39498C4.97761 6.40733 4.9893 6.41781 4.99695 6.42368L5.15732 6.54018L5.09564 6.35131C5.09245 6.34217 5.08596 6.32773 5.0783 6.31069C5.05635 6.26184 5.02482 6.19168 5.03396 6.1642C5.04308 6.1368 5.10995 6.09784 5.15632 6.07081L5.15633 6.07081C5.1727 6.06127 5.18652 6.05322 5.19433 6.04769L5.3547 5.93119H5.15732C5.14716 5.93119 5.13008 5.93292 5.11 5.93496C5.05696 5.94034 4.98295 5.94784 4.95994 5.93119C4.93752 5.91497 4.92214 5.84493 4.91069 5.7928C4.90595 5.77119 4.90188 5.75266 4.89826 5.74232C4.88857 5.71054 4.87844 5.67921 4.8683 5.64788C4.85817 5.61655 4.84804 5.58522 4.83834 5.55344L4.77666 5.74232C4.77394 5.7514 4.77064 5.76691 4.76672 5.7853C4.75541 5.83838 4.739 5.91546 4.71674 5.93119C4.69501 5.94656 4.62043 5.93963 4.56698 5.93467ZM4.51936 7.82523C4.52953 7.82523 4.54674 7.82696 4.56698 7.829C4.62043 7.83438 4.69501 7.84188 4.71674 7.82523C4.73907 7.80813 4.75552 7.73222 4.76683 7.68004C4.7707 7.66219 4.77397 7.64712 4.77666 7.63812C4.78577 7.61075 4.79455 7.58338 4.80329 7.55615L4.80332 7.55607C4.81485 7.52011 4.82631 7.48439 4.83834 7.44925C4.84618 7.47421 4.8543 7.49946 4.86247 7.52488L4.86248 7.5249L4.86248 7.52491L4.86249 7.52493L4.86249 7.52495L4.8625 7.52496L4.86251 7.52498C4.87455 7.56245 4.88672 7.60029 4.89826 7.63812C4.90185 7.6484 4.9059 7.66676 4.9106 7.68815L4.9106 7.68816C4.92206 7.74022 4.93746 7.81022 4.95994 7.82523C4.98295 7.8406 5.05696 7.83367 5.11 7.82871C5.13008 7.82683 5.14716 7.82523 5.15732 7.82523H5.3547L5.19433 7.93997C5.18535 7.94685 5.16845 7.9569 5.14885 7.96856C5.10307 7.99578 5.0426 8.03175 5.03396 8.05647C5.025 8.08212 5.05509 8.1506 5.07696 8.20037C5.0852 8.21911 5.09227 8.2352 5.09564 8.24535L5.1127 8.29747L5.11272 8.29752C5.12625 8.33909 5.14333 8.39157 5.15732 8.43246L4.99695 8.31595C4.98824 8.30979 4.97431 8.29737 4.95803 8.28283C4.91832 8.24739 4.86459 8.19945 4.83834 8.19945C4.81191 8.19945 4.75668 8.2481 4.71638 8.28361L4.71636 8.28362L4.71634 8.28364C4.70024 8.29782 4.68652 8.30991 4.67797 8.31595L4.51936 8.43246C4.53875 8.37067 4.5599 8.30713 4.58105 8.24535C4.58747 8.22659 4.59665 8.20506 4.60598 8.18319C4.62738 8.13303 4.64955 8.08106 4.64096 8.05647C4.63228 8.03161 4.57205 7.99538 4.5267 7.9681C4.50765 7.95664 4.49122 7.94676 4.48236 7.93997C4.4668 7.92806 4.43842 7.90805 4.40733 7.88614L4.40728 7.8861C4.3785 7.86582 4.34739 7.84389 4.32198 7.82523H4.51936ZM3.45114 3.09125H3.45114C3.43106 3.08921 3.41398 3.08748 3.40382 3.08748L3.21349 3.09278L3.37209 3.20928C3.38014 3.21497 3.39455 3.22321 3.41157 3.23294L3.41157 3.23294C3.45787 3.25942 3.52344 3.29691 3.53247 3.32402C3.54166 3.35164 3.50974 3.42338 3.48778 3.47276L3.48778 3.47276C3.48027 3.48964 3.47393 3.5039 3.47078 3.51289C3.4514 3.57467 3.43025 3.63822 3.4091 3.7L3.56947 3.5835C3.57816 3.57736 3.59189 3.56498 3.60795 3.5505C3.64726 3.51505 3.70056 3.467 3.72808 3.467C3.7558 3.467 3.81055 3.51573 3.85046 3.55124C3.86637 3.5654 3.87992 3.57746 3.88845 3.5835L4.04706 3.7L3.9801 3.5076C3.97698 3.49869 3.97084 3.4845 3.96356 3.46769C3.94201 3.41789 3.91051 3.34512 3.91841 3.31872C3.92642 3.29199 3.99604 3.25211 4.04316 3.22512C4.05828 3.21646 4.07108 3.20913 4.07878 3.20398L4.23739 3.08748H4.04001C4.02985 3.08748 4.01264 3.08908 3.9924 3.09096C3.93895 3.09592 3.86436 3.10285 3.84263 3.08748C3.82032 3.07171 3.80387 2.99522 3.79256 2.94262L3.79256 2.94262L3.79256 2.94262L3.79256 2.94261C3.78868 2.92459 3.78541 2.90938 3.78272 2.90037L3.72103 2.7115C3.71134 2.74327 3.70121 2.7746 3.69108 2.80593L3.69107 2.80595C3.68094 2.83727 3.67081 2.8686 3.66112 2.90037C3.65841 2.90942 3.65524 2.9246 3.65148 2.94257L3.65147 2.94261L3.65147 2.94262L3.65147 2.94262C3.64058 2.9948 3.62478 3.07042 3.6012 3.08748C3.57819 3.10413 3.50419 3.09663 3.45115 3.09125L3.45114 3.09125ZM3.40382 4.98329C3.41398 4.98329 3.43106 4.98502 3.45114 4.98706C3.50418 4.99243 3.57819 4.99993 3.6012 4.98329C3.62472 4.96627 3.6405 4.89002 3.65139 4.83735L3.65139 4.83734C3.65518 4.81901 3.65838 4.80353 3.66112 4.79441L3.72103 4.60731C3.7316 4.63818 3.74173 4.6695 3.75186 4.70082L3.75187 4.70086L3.75189 4.7009C3.76202 4.73222 3.77215 4.76354 3.78272 4.79441C3.79027 4.81647 3.79624 4.84393 3.80217 4.87117C3.81285 4.92021 3.82337 4.96853 3.84263 4.98329C3.86437 4.99993 3.93895 4.99243 3.9924 4.98706C4.01264 4.98502 4.02985 4.98329 4.04001 4.98329H4.23739L4.07878 5.09979C4.06999 5.10615 4.05455 5.1151 4.0366 5.12549L4.03657 5.12551L4.03656 5.12552L4.03654 5.12553L4.03652 5.12554C3.98977 5.15262 3.92605 5.18952 3.91841 5.21629C3.91056 5.24382 3.94159 5.3142 3.96313 5.36305L3.96314 5.36306C3.9706 5.37998 3.97692 5.39432 3.9801 5.4034C3.98979 5.43517 3.99992 5.46651 4.01005 5.49784C4.02019 5.52917 4.03032 5.5605 4.04001 5.59228L3.88141 5.47577C3.87391 5.47004 3.86257 5.45988 3.84915 5.44788L3.84915 5.44788L3.84915 5.44788C3.80892 5.41189 3.75011 5.35927 3.72103 5.35927C3.69222 5.35927 3.63517 5.41095 3.59548 5.44691C3.58176 5.45933 3.57012 5.46988 3.56243 5.47577L3.40205 5.59228L3.41477 5.55421C3.43162 5.50387 3.44824 5.4542 3.46374 5.4034C3.46692 5.39429 3.47339 5.37977 3.48103 5.36264C3.50298 5.31337 3.53457 5.24249 3.52542 5.21629C3.51678 5.19157 3.45631 5.15561 3.41054 5.12838C3.39093 5.11673 3.37403 5.10667 3.36505 5.09979L3.20644 4.98329H3.40382ZM3.45114 6.8811C3.43106 6.87906 3.41398 6.87733 3.40382 6.87733H3.21349L3.37209 6.99383C3.38014 6.99952 3.39456 7.00776 3.41157 7.01749C3.45787 7.04397 3.52344 7.08146 3.53247 7.10857C3.54057 7.13292 3.51978 7.1801 3.49907 7.22713L3.49906 7.22714C3.48824 7.25171 3.47744 7.27624 3.47078 7.29744C3.4514 7.35922 3.43025 7.42277 3.4091 7.48455L3.56947 7.36805C3.57816 7.36191 3.59189 7.34953 3.60795 7.33505C3.64726 7.2996 3.70056 7.25155 3.72808 7.25155C3.7558 7.25155 3.81055 7.30028 3.85046 7.3358C3.86637 7.34995 3.87992 7.36201 3.88845 7.36805L4.04706 7.48455L3.9801 7.29744C3.97698 7.28853 3.97084 7.27434 3.96356 7.25754C3.94201 7.20774 3.91051 7.13496 3.91841 7.10857C3.92642 7.08184 3.99604 7.04196 4.04316 7.01497C4.05828 7.00631 4.07108 6.99898 4.07878 6.99383L4.23739 6.87733H4.04001C4.02985 6.87733 4.01264 6.87893 3.9924 6.88081C3.93895 6.88577 3.86436 6.89269 3.84263 6.87733C3.82032 6.86155 3.80387 6.78506 3.79256 6.73247L3.79256 6.73245L3.79255 6.7324L3.79254 6.73238L3.79254 6.73236C3.78867 6.71439 3.78541 6.69921 3.78272 6.69022L3.72103 6.50135C3.71134 6.53312 3.70121 6.56445 3.69108 6.59578C3.68094 6.62711 3.67081 6.65845 3.66112 6.69022C3.6584 6.69927 3.65523 6.71447 3.65147 6.73247C3.64058 6.78464 3.62478 6.86027 3.6012 6.87733C3.57819 6.89397 3.50418 6.88647 3.45114 6.8811ZM2.96147 7.93644C2.95249 7.94332 2.93559 7.95337 2.91599 7.96503C2.87022 7.99225 2.80974 8.02822 2.8011 8.05294C2.7926 8.07728 2.82012 8.14022 2.84149 8.18912C2.85112 8.21114 2.8595 8.23031 2.86278 8.24182C2.87336 8.27888 2.90332 8.36714 2.92447 8.42892L2.76586 8.31242C2.756 8.30584 2.74054 8.29212 2.72275 8.27631C2.68324 8.24123 2.63222 8.19592 2.60549 8.19592C2.57796 8.19592 2.52466 8.24397 2.48535 8.27943L2.48534 8.27943C2.46929 8.29391 2.45556 8.30628 2.44688 8.31242L2.28651 8.42892C2.29708 8.39803 2.30721 8.3667 2.31735 8.33537C2.32748 8.30404 2.33761 8.27271 2.34819 8.24182C2.35481 8.22246 2.36438 8.20016 2.37407 8.17757C2.3953 8.12806 2.41713 8.07718 2.40987 8.05294C2.40254 8.02846 2.34522 7.99465 2.29901 7.96739C2.27857 7.95533 2.26031 7.94456 2.2495 7.93644L2.08913 7.8217H2.28474C2.29491 7.8217 2.31278 7.82343 2.33381 7.82547C2.38932 7.83085 2.46678 7.83835 2.48212 7.8217C2.49686 7.80571 2.51503 7.73826 2.52886 7.6869C2.53487 7.66458 2.54007 7.64529 2.5438 7.63459C2.55536 7.59672 2.56753 7.55886 2.57959 7.52136L2.5796 7.52135L2.57963 7.52123C2.5878 7.49585 2.5959 7.47064 2.60372 7.44572C2.61154 7.47064 2.61965 7.49585 2.62781 7.52123L2.62785 7.52135L2.62785 7.52136C2.63991 7.55886 2.65209 7.59672 2.66364 7.63459C2.66723 7.64487 2.67128 7.66324 2.67598 7.68463C2.68744 7.73669 2.70284 7.80669 2.72532 7.8217C2.74833 7.83707 2.82234 7.83014 2.87538 7.82518C2.89546 7.8233 2.91254 7.8217 2.9227 7.8217H3.12008L2.96147 7.93644ZM2.92347 6.06552L2.92347 6.06551L2.92349 6.06551C2.93985 6.05597 2.95366 6.04792 2.96147 6.0424L3.12008 5.92766H2.9227C2.91254 5.92766 2.89546 5.92939 2.87538 5.93143C2.82234 5.9368 2.74833 5.94431 2.72532 5.92766C2.7029 5.91144 2.68752 5.8414 2.67607 5.78927C2.67133 5.76766 2.66726 5.74913 2.66364 5.73879C2.65395 5.70701 2.64382 5.67568 2.63368 5.64435C2.62355 5.61302 2.61342 5.58169 2.60372 5.54991C2.59403 5.58169 2.5839 5.61302 2.57376 5.64435C2.56363 5.67568 2.5535 5.70701 2.5438 5.73879C2.54004 5.74956 2.5348 5.76937 2.52873 5.7923C2.51492 5.84453 2.49682 5.91294 2.48212 5.92766C2.46678 5.94303 2.38932 5.9361 2.33381 5.93114C2.31278 5.92926 2.29491 5.92766 2.28474 5.92766H2.08913L2.2495 6.04416C2.2573 6.04968 2.27121 6.05784 2.2877 6.06751C2.33449 6.09494 2.40205 6.13456 2.40987 6.16067C2.41727 6.18538 2.38926 6.24989 2.36817 6.29848C2.35913 6.31929 2.35136 6.33719 2.34819 6.34777L2.28651 6.53488C2.3093 6.51814 2.33669 6.49844 2.36287 6.47961L2.36295 6.47955L2.36306 6.47947C2.39752 6.45468 2.42987 6.43141 2.44688 6.41838C2.45457 6.41249 2.46621 6.40194 2.47993 6.38952C2.51962 6.35356 2.57667 6.30188 2.60549 6.30188C2.63334 6.30188 2.68758 6.35018 2.72768 6.38588C2.74339 6.39987 2.75693 6.41192 2.76586 6.41838L2.92447 6.53488L2.86278 6.34601C2.85964 6.3355 2.85181 6.31797 2.84269 6.29753C2.82116 6.2493 2.79244 6.18494 2.8011 6.1589C2.81022 6.1315 2.87709 6.09254 2.92347 6.06552ZM2.96147 4.14659C2.95249 4.15347 2.93559 4.16353 2.91599 4.17518C2.87021 4.20241 2.80974 4.23838 2.8011 4.26309C2.79245 4.28787 2.82111 4.35263 2.84263 4.40126C2.85177 4.42192 2.85963 4.43967 2.86278 4.4502L2.92447 4.63908L2.76586 4.52258C2.75693 4.51612 2.74339 4.50406 2.72768 4.49008L2.72768 4.49008C2.68758 4.45437 2.63334 4.40607 2.60549 4.40607C2.57667 4.40607 2.51962 4.45775 2.47993 4.49371C2.46621 4.50614 2.45457 4.51668 2.44688 4.52258L2.28651 4.63908L2.34819 4.4502C2.35135 4.43964 2.35909 4.42197 2.36809 4.4014L2.3681 4.4014C2.3892 4.3532 2.41728 4.28907 2.40987 4.26309C2.40244 4.23706 2.3411 4.20144 2.29487 4.17459L2.29487 4.17459C2.27528 4.16322 2.25841 4.15342 2.2495 4.14659L2.08913 4.03186H2.28474C2.29491 4.03186 2.31278 4.03359 2.33381 4.03562L2.33381 4.03562C2.38933 4.041 2.46678 4.0485 2.48212 4.03186C2.49686 4.01586 2.51503 3.94842 2.52886 3.89706L2.52886 3.89705C2.53487 3.87473 2.54007 3.85544 2.5438 3.84475C2.5535 3.81297 2.56363 3.78164 2.57376 3.75031C2.5839 3.71898 2.59403 3.68764 2.60372 3.65587C2.61342 3.68764 2.62355 3.71898 2.63368 3.75031C2.64382 3.78164 2.65395 3.81297 2.66364 3.84475C2.66723 3.85503 2.67128 3.87339 2.67598 3.89478C2.68744 3.94685 2.70284 4.01684 2.72532 4.03186C2.74833 4.04722 2.82234 4.0403 2.87538 4.03533C2.89546 4.03345 2.91254 4.03186 2.9227 4.03186H3.12008L2.96147 4.14659ZM3.20644 8.76961L3.36505 8.88434V8.88787C3.37439 8.89503 3.39232 8.90529 3.41294 8.91708C3.4584 8.94308 3.51693 8.97656 3.52542 9.00084C3.53457 9.02704 3.50298 9.09792 3.48103 9.14719C3.47339 9.16432 3.46692 9.17884 3.46374 9.18795C3.44824 9.23876 3.43161 9.28843 3.41476 9.33878C3.41054 9.35141 3.4063 9.36408 3.40205 9.37683L3.56243 9.26033C3.57012 9.25443 3.58176 9.24389 3.59548 9.23146C3.63517 9.1955 3.69222 9.14382 3.72103 9.14382C3.75011 9.14382 3.80892 9.19644 3.84915 9.23243C3.86256 9.24443 3.87391 9.25459 3.88141 9.26033L4.04001 9.37683C4.03032 9.34505 4.02019 9.31372 4.01005 9.28239C3.99992 9.25106 3.98979 9.21973 3.9801 9.18795C3.97692 9.17887 3.9706 9.16453 3.96313 9.1476C3.94159 9.09875 3.91056 9.02838 3.91841 9.00084C3.92605 8.97407 3.98977 8.93717 4.03653 8.91009C4.0545 8.89968 4.06997 8.89072 4.07878 8.88434L4.23739 8.76961H4.04001C4.02985 8.76961 4.01264 8.77134 3.9924 8.77337C3.93895 8.77875 3.86437 8.78625 3.84263 8.76961C3.82037 8.75256 3.80395 8.67606 3.79264 8.62339C3.78873 8.60517 3.78543 8.5898 3.78272 8.58073C3.77214 8.54984 3.76201 8.51851 3.75187 8.48718C3.74174 8.45584 3.73161 8.42451 3.72103 8.39362L3.66112 8.58073C3.65838 8.58985 3.65518 8.60533 3.65139 8.62367C3.6405 8.67633 3.62472 8.75259 3.6012 8.76961C3.57819 8.78625 3.50418 8.77875 3.45114 8.77337C3.43106 8.77134 3.41398 8.76961 3.40382 8.76961H3.20644Z" fill="#0437A0"/>
<path fill-rule="evenodd" clip-rule="evenodd" d="M1.2925 5.21453C1.30483 5.24983 1.24315 5.36633 1.23258 5.40164C1.21143 5.46518 1.19028 5.52696 1.1709 5.59051L1.32951 5.47401C1.35947 5.45106 1.45111 5.35751 1.48988 5.35751C1.52865 5.35751 1.61853 5.45106 1.64849 5.47401L1.80886 5.59051C1.78771 5.52696 1.76656 5.46518 1.74718 5.40164C1.73484 5.36633 1.67316 5.24983 1.6855 5.21453C1.69783 5.17922 1.81591 5.12097 1.84587 5.09802L2.00448 4.98152H1.8071C1.77009 4.98152 1.64144 5.00447 1.61148 4.98152C1.58152 4.95857 1.56213 4.82795 1.5498 4.79265L1.53394 4.74499C1.44758 4.89503 1.3577 5.0486 1.28721 5.20217C1.28897 5.20747 1.2925 5.211 1.2925 5.21453Z" fill="#F4F4F4"/>
<path fill-rule="evenodd" clip-rule="evenodd" d="M5.89394 1.00457C5.8816 1.03987 5.86398 1.17049 5.83226 1.19344C5.80054 1.21639 5.67189 1.19344 5.63488 1.19344H5.4375L5.59787 1.30994C5.62783 1.33113 5.74591 1.38938 5.75824 1.42644C5.77058 1.46351 5.7089 1.57825 5.69656 1.61355L5.63312 1.80066L5.79349 1.68416C5.82345 1.66121 5.91509 1.56766 5.9521 1.56766C5.98911 1.56766 6.08251 1.66121 6.11247 1.68416L6.27108 1.80066C6.25169 1.73712 6.23054 1.67534 6.2094 1.61179C6.19882 1.57649 6.13714 1.45998 6.14771 1.42468C6.15829 1.38938 6.27813 1.32936 6.30809 1.30818L6.46846 1.19168H6.27284C6.23583 1.19168 6.09661 1.21286 6.07546 1.19168C6.05431 1.17049 6.02611 1.0381 6.01554 1.0028L5.98558 0.935724L5.89747 0.969263L5.89394 1.00457Z" fill="#F4F4F4"/>
<path fill-rule="evenodd" clip-rule="evenodd" d="M0.532984 8.31595L0.691593 8.43246C0.672207 8.37068 0.65106 8.30713 0.629912 8.24535C0.608764 8.18357 0.557657 8.09178 0.569993 8.05647C0.582329 8.02117 0.698642 7.96292 0.728602 7.93997C0.758561 7.91702 0.836103 7.86407 0.888973 7.82523H0.698642C0.661633 7.82523 0.531222 7.84818 0.501262 7.82523C0.48244 7.80726 0.468491 7.78478 0.460729 7.75992C0.436057 7.9029 0.416671 8.05471 0.399048 8.20828C0.445748 8.24153 0.49047 8.27748 0.532984 8.31595Z" fill="#F4F4F4"/>
<path fill-rule="evenodd" clip-rule="evenodd" d="M7.99115 7.10857C8.00173 7.14564 7.94005 7.26214 7.92947 7.29744C7.9189 7.33275 7.88894 7.42277 7.86779 7.48455L8.0264 7.36805C8.05636 7.34687 8.14976 7.25155 8.18677 7.25155C8.22378 7.25155 8.31542 7.34687 8.34538 7.36805L8.50575 7.48455C8.4846 7.42277 8.46522 7.35922 8.44407 7.29744C8.42292 7.23566 8.37181 7.14564 8.38239 7.10857C8.39296 7.0715 8.5128 7.01501 8.54276 6.99383L8.70313 6.87733H8.50575C8.46874 6.87733 8.33833 6.90028 8.30837 6.87733C8.27841 6.85438 8.25903 6.72552 8.24669 6.69022C8.2273 6.62667 8.20616 6.56489 8.18677 6.50135C8.16738 6.56489 8.14624 6.62667 8.12685 6.69022C8.11451 6.72552 8.09513 6.85615 8.06517 6.87733C8.03521 6.89851 7.9048 6.87733 7.86779 6.87733H7.67041L7.83078 6.99383C7.86074 7.01501 7.97882 7.07327 7.99115 7.10857Z" fill="#F4F4F4"/>
<path fill-rule="evenodd" clip-rule="evenodd" d="M4.64088 6.17126C4.65322 6.20656 4.59153 6.32306 4.58096 6.35837C4.55981 6.42191 4.53866 6.48369 4.51928 6.54724L4.67789 6.43074C4.70785 6.40779 4.79949 6.31424 4.83826 6.31424C4.87703 6.31424 4.96691 6.40779 4.99687 6.43074L5.15724 6.54724L5.10437 6.34777C5.09203 6.31247 5.03035 6.19597 5.04269 6.16066C5.05502 6.12536 5.1731 6.06534 5.20306 6.04416L5.36343 5.92766H5.15724C5.12023 5.92766 4.98982 5.94884 4.95986 5.92766C4.9299 5.90648 4.91051 5.77409 4.89818 5.73879C4.87879 5.67524 4.85764 5.61346 4.83826 5.54991L4.77658 5.73879C4.766 5.77409 4.74662 5.90471 4.71666 5.92766C4.6867 5.95061 4.55629 5.92766 4.51928 5.92766H4.3219L4.48227 6.04416C4.51223 6.06711 4.63031 6.12536 4.64088 6.17126Z" fill="#F4F4F4"/>
<path fill-rule="evenodd" clip-rule="evenodd" d="M4.64088 8.05647C4.65322 8.09178 4.59153 8.20828 4.58096 8.24535C4.57039 8.28242 4.53866 8.37068 4.51928 8.43246L4.67789 8.31595C4.70785 8.29477 4.79949 8.19945 4.83826 8.19945C4.87703 8.19945 4.96691 8.29477 4.99687 8.31595L5.15724 8.43246C5.13609 8.37068 5.11671 8.30713 5.09556 8.24535C5.07441 8.18357 5.02154 8.09178 5.03388 8.05647C5.04621 8.02117 5.16429 7.96292 5.19425 7.93997L5.35462 7.82523H5.15724C5.12023 7.82523 4.98982 7.84818 4.95986 7.82523C4.9299 7.80229 4.91051 7.67343 4.89818 7.63812C4.87879 7.57458 4.85764 7.51103 4.83826 7.44925C4.81711 7.51103 4.79773 7.57458 4.77658 7.63812C4.766 7.67343 4.74662 7.80405 4.71666 7.82523C4.6867 7.84642 4.55629 7.82523 4.51928 7.82523H4.3219C4.37477 7.86407 4.42764 7.9029 4.48227 7.93997C4.5369 7.97704 4.63031 8.02117 4.64088 8.05647Z" fill="#F4F4F4"/>
<path fill-rule="evenodd" clip-rule="evenodd" d="M5.75824 9.00437C5.76882 9.03968 5.7089 9.15618 5.69656 9.19148L5.63312 9.38036L5.79349 9.26386C5.82345 9.24091 5.91509 9.14735 5.9521 9.14735C5.98911 9.14735 6.08251 9.24091 6.11247 9.26386L6.27108 9.38036C6.25169 9.31681 6.23054 9.25503 6.2094 9.19148C6.19882 9.15618 6.13714 9.03968 6.14771 9.00437C6.15829 8.96907 6.27813 8.91082 6.30809 8.88787L6.46846 8.77314H6.27284C6.23583 8.77314 6.09661 8.79608 6.07546 8.77314C6.05431 8.75019 6.02611 8.61956 6.01554 8.58426C5.99439 8.52248 5.97501 8.45893 5.95386 8.39715L5.89394 8.58426C5.8816 8.61956 5.86398 8.75019 5.83226 8.77314C5.80054 8.79608 5.67189 8.77314 5.63488 8.77314H5.4375C5.49213 8.8102 5.545 8.84904 5.59787 8.88787C5.65074 8.92671 5.74591 8.96731 5.75824 9.00437Z" fill="#F4F4F4"/>
<path fill-rule="evenodd" clip-rule="evenodd" d="M4.64088 4.26662C4.65322 4.30369 4.59153 4.41843 4.58096 4.45373C4.55981 4.51728 4.53866 4.57906 4.51928 4.64261L4.67789 4.52611C4.70785 4.50316 4.79949 4.4096 4.83826 4.4096C4.87703 4.4096 4.96691 4.50316 4.99687 4.52611L5.15724 4.64261L5.10437 4.45373C5.09203 4.41843 5.03035 4.30369 5.04269 4.26662C5.05502 4.22955 5.1731 4.17307 5.20306 4.15012L5.36343 4.03538H5.15724C5.12023 4.03538 4.98982 4.05833 4.95986 4.03538C4.9299 4.01244 4.91051 3.88358 4.89818 3.84828C4.87879 3.78473 4.85764 3.72295 4.83826 3.6594L4.77658 3.84828C4.766 3.88358 4.74662 4.0142 4.71666 4.03538C4.6867 4.05657 4.55629 4.03538 4.51928 4.03538H4.3219C4.37477 4.07422 4.42764 4.11305 4.48227 4.15012C4.5369 4.18719 4.63031 4.22955 4.64088 4.26662Z" fill="#F4F4F4"/>
<path fill-rule="evenodd" clip-rule="evenodd" d="M4.64088 2.37082C4.65322 2.40789 4.59153 2.52439 4.58096 2.55969C4.55981 2.62147 4.53866 2.68502 4.51928 2.7468L4.67789 2.6303C4.70785 2.60912 4.79949 2.5138 4.83826 2.5138C4.87703 2.5138 4.96691 2.60912 4.99687 2.6303L5.15724 2.7468C5.13609 2.68502 5.11671 2.62147 5.09556 2.55969C5.08322 2.52439 5.02154 2.40789 5.03388 2.37082C5.04621 2.33375 5.16429 2.27726 5.19425 2.25608L5.35462 2.13958H5.15724C5.12023 2.13958 4.98982 2.16253 4.95986 2.13958C4.9299 2.11663 4.91051 1.98601 4.89818 1.9507C4.87879 1.88716 4.85764 1.82538 4.83826 1.76183L4.77658 1.95247C4.766 1.98777 4.74662 2.1184 4.71666 2.14134C4.6867 2.16429 4.55629 2.14134 4.51928 2.14134H4.3219L4.48227 2.25785C4.51223 2.27726 4.63031 2.33551 4.64088 2.37082Z" fill="#F4F4F4"/>
<path fill-rule="evenodd" clip-rule="evenodd" d="M3.51835 5.21453C3.53069 5.24983 3.46901 5.36633 3.45667 5.40164C3.43728 5.46518 3.41614 5.52696 3.39499 5.59051L3.55536 5.47401C3.58532 5.45106 3.67696 5.35751 3.71397 5.35751C3.75098 5.35751 3.84438 5.45106 3.87434 5.47401L4.03295 5.59051C4.01356 5.52696 3.99242 5.46518 3.97303 5.40164C3.96069 5.36633 3.89901 5.24983 3.91135 5.21453C3.92368 5.17922 4.04 5.12097 4.07172 5.09803L4.23033 4.98152H4.04705C4.01004 4.98152 3.88139 5.00447 3.84967 4.98152C3.81795 4.95858 3.80032 4.82795 3.78975 4.79265C3.77917 4.75734 3.74922 4.66732 3.72807 4.60554L3.66815 4.79265C3.65757 4.82795 3.63819 4.95858 3.60823 4.98152C3.57827 5.00447 3.44786 4.98152 3.41085 4.98152H3.20642L3.36503 5.09803C3.39499 5.12097 3.51835 5.17746 3.51835 5.21453Z" fill="#F4F4F4"/>
<path fill-rule="evenodd" clip-rule="evenodd" d="M3.51835 3.31872C3.53069 3.35579 3.46901 3.47229 3.45667 3.50759C3.43728 3.56938 3.41614 3.63292 3.39499 3.6947L3.55536 3.5782C3.58532 3.55702 3.67696 3.4617 3.71397 3.4617C3.75098 3.4617 3.84438 3.55702 3.87434 3.5782L4.04705 3.7L3.98713 3.51289C3.97479 3.47759 3.91311 3.36108 3.92545 3.32402C3.93778 3.28695 4.0541 3.23046 4.08582 3.20928L4.24443 3.09278H4.04705C4.01004 3.09278 3.88139 3.11572 3.84967 3.09278C3.81795 3.06983 3.80032 2.94097 3.78975 2.90567L3.72807 2.71679C3.70868 2.78034 3.68753 2.84212 3.66815 2.90567C3.65757 2.94097 3.63819 3.07159 3.60823 3.09278C3.57827 3.11396 3.44786 3.09278 3.41085 3.09278H3.20642L3.36503 3.20928C3.39499 3.22517 3.51835 3.28342 3.51835 3.31872Z" fill="#F4F4F4"/>
<path fill-rule="evenodd" clip-rule="evenodd" d="M3.40204 9.38036L3.56241 9.26386C3.59237 9.24091 3.68401 9.14735 3.72102 9.14735C3.75803 9.14735 3.85143 9.24091 3.88139 9.26386L4.04 9.38036C4.02061 9.31681 3.99946 9.25503 3.98008 9.19148C3.96774 9.15618 3.90606 9.03968 3.9184 9.00437C3.93073 8.96907 4.04705 8.91082 4.07877 8.88787L4.23738 8.77314H4.04705C4.01004 8.77314 3.88139 8.79608 3.84967 8.77314C3.81795 8.75019 3.80032 8.61956 3.78975 8.58426C3.7686 8.52248 3.74922 8.45893 3.72807 8.39715L3.66815 8.58426C3.65757 8.61956 3.63819 8.75019 3.60823 8.77314C3.57827 8.79608 3.44786 8.77314 3.41085 8.77314H3.20642L3.36503 8.88787C3.39499 8.91082 3.51306 8.96731 3.5254 9.00437C3.53774 9.04144 3.47606 9.15618 3.46372 9.19148C3.44433 9.25503 3.42319 9.31681 3.40204 9.38036Z" fill="#F4F4F4"/>
<path fill-rule="evenodd" clip-rule="evenodd" d="M2.72707 4.03538C2.69535 4.0142 2.67773 3.88358 2.66539 3.84828C2.646 3.78473 2.62486 3.72295 2.60547 3.6594C2.58609 3.72295 2.56494 3.78473 2.54555 3.84828C2.53322 3.88358 2.51559 4.0142 2.48387 4.03538C2.45215 4.05657 2.3235 4.03538 2.28649 4.03538H2.08911L2.24948 4.15012C2.27944 4.17307 2.39752 4.23132 2.40985 4.26662C2.42219 4.30193 2.35875 4.41843 2.34817 4.45373L2.28473 4.64261L2.4451 4.52611C2.47506 4.50316 2.56494 4.4096 2.60371 4.4096C2.64248 4.4096 2.73236 4.50316 2.76408 4.52611L2.92269 4.64261L2.86101 4.45373C2.85043 4.41843 2.78875 4.30369 2.79933 4.26662C2.8099 4.22955 2.92974 4.17307 2.9597 4.15012L3.12007 4.03538H2.92445C2.88744 4.03538 2.75703 4.05304 2.72707 4.03538Z" fill="#F4F4F4"/>
<path fill-rule="evenodd" clip-rule="evenodd" d="M2.72707 7.82523C2.69535 7.80405 2.67773 7.67343 2.66539 7.63812C2.646 7.57458 2.62486 7.51103 2.60547 7.44925C2.58609 7.51103 2.56494 7.57458 2.54555 7.63812C2.53322 7.67343 2.51559 7.80405 2.48387 7.82523C2.45215 7.84642 2.3235 7.82523 2.28649 7.82523H2.08911L2.24948 7.93997C2.27944 7.96292 2.39752 8.02117 2.40985 8.05647C2.42219 8.09178 2.35875 8.20828 2.34817 8.24535C2.3376 8.28242 2.30764 8.37068 2.28649 8.43246L2.44686 8.31595C2.47682 8.29477 2.5667 8.19945 2.60547 8.19945C2.64424 8.19945 2.73412 8.29477 2.76584 8.31595L2.92445 8.43246C2.9033 8.37068 2.88392 8.30713 2.86277 8.24535C2.84162 8.18357 2.79051 8.09178 2.80109 8.05647C2.81166 8.02117 2.9315 7.96292 2.96146 7.93997L3.12183 7.82523H2.92445C2.88744 7.82523 2.75703 7.84818 2.72707 7.82523Z" fill="#F4F4F4"/>
<path fill-rule="evenodd" clip-rule="evenodd" d="M3.51835 7.10857C3.53069 7.14564 3.46901 7.26214 3.45667 7.29744C3.44433 7.33275 3.41614 7.42277 3.39499 7.48455L3.55536 7.36805C3.58532 7.34687 3.67696 7.25155 3.71397 7.25155C3.75098 7.25155 3.84438 7.34687 3.87434 7.36805L4.03295 7.48455L3.97303 7.29744C3.96069 7.26214 3.89901 7.14564 3.91135 7.10857C3.92368 7.0715 4.04 7.01501 4.07172 6.99383L4.23033 6.87733H4.04705C4.01004 6.87733 3.88139 6.90028 3.84967 6.87733C3.81795 6.85438 3.80032 6.72552 3.78975 6.69022L3.72807 6.50135C3.70868 6.56489 3.68753 6.62667 3.66815 6.69022C3.65757 6.72552 3.63819 6.85615 3.60823 6.87733C3.57827 6.89851 3.44786 6.87733 3.41085 6.87733H3.20642L3.36503 6.99383C3.39499 7.01501 3.51835 7.07327 3.51835 7.10857Z" fill="#F4F4F4"/>
<path fill-rule="evenodd" clip-rule="evenodd" d="M2.72707 5.93119C2.69535 5.90825 2.67773 5.77762 2.66539 5.74232C2.646 5.67877 2.62486 5.61699 2.60547 5.55344C2.58609 5.61699 2.56494 5.67877 2.54555 5.74232C2.53322 5.77762 2.51559 5.90825 2.48387 5.93119C2.45215 5.95414 2.3235 5.93119 2.28649 5.93119H2.08911L2.24948 6.0477C2.27944 6.06888 2.39752 6.12713 2.40985 6.1642C2.42219 6.20127 2.35875 6.316 2.34817 6.35131L2.28473 6.53842C2.3376 6.49958 2.39047 6.45898 2.4451 6.42191C2.49973 6.38485 2.56494 6.30541 2.60371 6.30541C2.64248 6.30541 2.73236 6.39897 2.76408 6.42191L2.92269 6.53842L2.86277 6.34778C2.8522 6.31247 2.79051 6.19597 2.80109 6.16067C2.81166 6.12536 2.9315 6.06535 2.96146 6.04416L3.12183 5.92766H2.92445C2.88744 5.93119 2.75703 5.95238 2.72707 5.93119Z" fill="#F4F4F4"/>
<path fill-rule="evenodd" clip-rule="evenodd" d="M1.61147 8.77314C1.57975 8.75019 1.56213 8.61956 1.54979 8.58426L1.48987 8.39715C1.46872 8.45893 1.44934 8.52248 1.42819 8.58426C1.41762 8.61956 1.39823 8.75019 1.36827 8.77314C1.33831 8.79608 1.2079 8.77314 1.17089 8.77314H0.973511L1.13388 8.88787C1.16384 8.91082 1.28192 8.96731 1.29249 9.00437C1.30306 9.04144 1.24315 9.15618 1.23257 9.19148C1.21142 9.25503 1.19028 9.31681 1.17089 9.38036L1.3295 9.26386C1.35946 9.24091 1.4511 9.14735 1.48987 9.14735C1.52864 9.14735 1.61852 9.24091 1.64848 9.26386L1.80885 9.38036C1.7877 9.31681 1.76655 9.25503 1.74717 9.19148C1.73483 9.15618 1.67315 9.03968 1.68549 9.00437C1.69782 8.96907 1.8159 8.91082 1.84586 8.88787L2.00447 8.77314H1.80709C1.77008 8.77314 1.64143 8.79608 1.61147 8.77314Z" fill="#F4F4F4"/>
<path fill-rule="evenodd" clip-rule="evenodd" d="M6.86674 2.37082C6.87908 2.40789 6.8174 2.52439 6.80506 2.55969L6.74514 2.7468L6.90375 2.6303C6.93371 2.60912 7.02535 2.5138 7.06412 2.5138C7.10289 2.5138 7.19277 2.60912 7.22273 2.6303L7.3831 2.7468C7.36195 2.68502 7.3408 2.62147 7.32142 2.55969C7.30908 2.52439 7.2474 2.40789 7.25974 2.37082C7.27207 2.33375 7.38839 2.27726 7.42011 2.25608L7.57872 2.13958H7.39544C7.35843 2.13958 7.22978 2.16253 7.19806 2.13958C7.16633 2.11663 7.14871 1.98601 7.13814 1.9507C7.11699 1.88716 7.0976 1.82538 7.07822 1.76183L7.00949 1.95247C6.99891 1.98777 6.97953 2.1184 6.94957 2.14134C6.91961 2.16429 6.7892 2.14134 6.75219 2.14134H6.55481L6.71342 2.25785C6.74514 2.27726 6.86674 2.33551 6.86674 2.37082Z" fill="#F4F4F4"/>
<path fill-rule="evenodd" clip-rule="evenodd" d="M7.99115 9.00437C8.00173 9.03968 7.94004 9.15618 7.92947 9.19148L7.86779 9.38036L8.0264 9.26386C8.05636 9.24091 8.14976 9.14735 8.18677 9.14735C8.22378 9.14735 8.31542 9.24091 8.34538 9.26386L8.50575 9.38036L8.45288 9.19148C8.44231 9.15618 8.38062 9.03968 8.3912 9.00437C8.40177 8.96907 8.52161 8.91082 8.55157 8.88787L8.71194 8.77314H8.50575C8.46874 8.77314 8.33833 8.79608 8.30837 8.77314C8.27841 8.75019 8.25902 8.61956 8.24669 8.58426L8.18677 8.39715L8.12685 8.58426C8.11451 8.61956 8.09513 8.75019 8.06517 8.77314C8.03521 8.79608 7.9048 8.77314 7.86779 8.77314H7.67041L7.83078 8.88787C7.86074 8.91082 7.97882 8.96731 7.99115 9.00437Z" fill="#F4F4F4"/>
<path fill-rule="evenodd" clip-rule="evenodd" d="M6.86674 4.26662C6.87908 4.30369 6.8174 4.41843 6.80506 4.45373C6.78567 4.51728 6.76453 4.57906 6.74514 4.64261L6.90375 4.52611C6.93371 4.50316 7.02535 4.4096 7.06412 4.4096C7.10289 4.4096 7.19277 4.50316 7.22273 4.52611L7.3831 4.64261C7.36195 4.57906 7.3408 4.51728 7.32142 4.45373C7.30908 4.41843 7.2474 4.30369 7.25974 4.26662C7.27207 4.22955 7.38839 4.17307 7.42011 4.15012L7.57872 4.03538H7.39544C7.35843 4.03538 7.22978 4.05833 7.19806 4.03538C7.16633 4.01244 7.14871 3.88358 7.13814 3.84828C7.11699 3.78473 7.0976 3.72295 7.07822 3.6594L7.01654 3.84828C7.00596 3.88358 6.98658 4.0142 6.95662 4.03538C6.92666 4.05657 6.79625 4.03538 6.75924 4.03538H6.55481L6.71342 4.15012C6.74514 4.17307 6.86674 4.22955 6.86674 4.26662Z" fill="#F4F4F4"/>
<path fill-rule="evenodd" clip-rule="evenodd" d="M7.99115 5.21453C8.00173 5.24983 7.94004 5.36633 7.92947 5.40164L7.86779 5.59051L8.0264 5.47401C8.05636 5.45106 8.14976 5.35751 8.18677 5.35751C8.22378 5.35751 8.31542 5.45106 8.34538 5.47401L8.50575 5.59051L8.45288 5.40164C8.44231 5.36633 8.38062 5.24983 8.3912 5.21453C8.40177 5.17922 8.52161 5.12097 8.55157 5.09803L8.71194 4.98152H8.50575C8.46874 4.98152 8.33833 5.00447 8.30837 4.98152C8.27841 4.95858 8.25902 4.82795 8.24669 4.79265L8.18677 4.60554L8.12685 4.79265C8.11451 4.82795 8.09513 4.95858 8.06517 4.98152C8.03521 5.00447 7.9048 4.98152 7.86779 4.98152H7.67041L7.83078 5.09803C7.86074 5.12097 7.97882 5.17746 7.99115 5.21453Z" fill="#F4F4F4"/>
<path fill-rule="evenodd" clip-rule="evenodd" d="M7.99115 3.31872C8.00173 3.35579 7.94005 3.47229 7.92947 3.5076C7.90832 3.56938 7.88894 3.63292 7.86779 3.69471L8.0264 3.5782C8.05636 3.55702 8.14976 3.4617 8.18677 3.4617C8.22378 3.4617 8.31542 3.55702 8.34538 3.5782L8.50575 3.69471C8.4846 3.63292 8.46522 3.56938 8.44407 3.5076C8.43349 3.47229 8.37181 3.35579 8.38239 3.31872C8.39296 3.28165 8.5128 3.22517 8.54276 3.20398L8.70313 3.08748H8.50575C8.46874 3.08748 8.33833 3.11043 8.30837 3.08748C8.27841 3.06453 8.25903 2.93568 8.24669 2.90037C8.2273 2.83683 8.20616 2.77504 8.18677 2.7115C8.16738 2.77504 8.14624 2.83683 8.12685 2.90037C8.11451 2.93568 8.09513 3.0663 8.06517 3.08748C8.03521 3.10866 7.9048 3.08748 7.86779 3.08748H7.67041L7.83078 3.20398C7.86074 3.22517 7.97882 3.28342 7.99115 3.31872Z" fill="#F4F4F4"/>
<path fill-rule="evenodd" clip-rule="evenodd" d="M6.86674 6.17125C6.87908 6.20656 6.8174 6.32306 6.80506 6.35836C6.78567 6.42191 6.76453 6.48369 6.74514 6.54724L6.90375 6.43074C6.93371 6.40779 7.02535 6.31423 7.06412 6.31423C7.10289 6.31423 7.19277 6.40779 7.22273 6.43074L7.3831 6.54724C7.36195 6.48369 7.3408 6.42191 7.32142 6.35836C7.30908 6.32306 7.2474 6.20656 7.25974 6.17125C7.27207 6.13595 7.38839 6.07593 7.42011 6.05475L7.57872 5.93825H7.39544C7.35843 5.93825 7.22978 5.95943 7.19806 5.93825C7.16633 5.91707 7.14871 5.78468 7.13814 5.74938C7.11699 5.68583 7.0976 5.62405 7.07822 5.5605L7.01654 5.74938C7.00596 5.78468 6.98658 5.9153 6.95662 5.93825C6.92666 5.9612 6.79625 5.93825 6.75924 5.93825H6.55481L6.71342 6.05475C6.74514 6.06711 6.86674 6.12536 6.86674 6.17125Z" fill="#F4F4F4"/>
<path fill-rule="evenodd" clip-rule="evenodd" d="M5.75824 3.31872C5.76882 3.35579 5.7089 3.47229 5.69656 3.5076C5.67541 3.56938 5.65603 3.63292 5.63488 3.69471L5.79525 3.5782C5.82521 3.55702 5.91685 3.4617 5.95386 3.4617C5.99087 3.4617 6.08427 3.55702 6.11423 3.5782L6.27284 3.69471C6.25345 3.63292 6.23231 3.56938 6.21116 3.5076C6.20058 3.47229 6.1389 3.35579 6.14948 3.31872C6.16005 3.28165 6.27989 3.22517 6.30985 3.20398L6.47022 3.08748H6.27284C6.23583 3.08748 6.09661 3.11043 6.07546 3.08748C6.05431 3.06453 6.02611 2.93568 6.01554 2.90037L5.95386 2.7115C5.93447 2.77504 5.91333 2.83683 5.89394 2.90037C5.8816 2.93568 5.86398 3.0663 5.83226 3.08748C5.80054 3.10866 5.67189 3.08748 5.63488 3.08748H5.4375L5.59787 3.20398C5.63312 3.22517 5.74591 3.28342 5.75824 3.31872Z" fill="#F4F4F4"/>
<path fill-rule="evenodd" clip-rule="evenodd" d="M6.86674 8.05647C6.87908 8.09178 6.8174 8.20828 6.80506 8.24535L6.74514 8.43246L6.90375 8.31595C6.93371 8.29477 7.02535 8.19945 7.06412 8.19945C7.10289 8.19945 7.19277 8.29477 7.22273 8.31595L7.3831 8.43246C7.36195 8.37068 7.3408 8.30713 7.32142 8.24535C7.30203 8.18357 7.2474 8.09178 7.25974 8.05647C7.27207 8.02117 7.38839 7.96292 7.42011 7.93997L7.57872 7.82523H7.39544C7.35843 7.82523 7.22978 7.84818 7.19806 7.82523C7.16633 7.80229 7.14871 7.67343 7.13814 7.63812C7.11699 7.57458 7.0976 7.51103 7.07822 7.44925C7.05707 7.51103 7.03769 7.57458 7.01654 7.63812C7.00596 7.67343 6.98658 7.80405 6.95662 7.82523C6.92666 7.84642 6.79625 7.82523 6.75924 7.82523H6.55481L6.71342 7.93997C6.74514 7.96292 6.86674 8.02117 6.86674 8.05647Z" fill="#F4F4F4"/>
<path fill-rule="evenodd" clip-rule="evenodd" d="M5.75824 7.10857C5.76882 7.14564 5.7089 7.26214 5.69656 7.29744C5.68422 7.33275 5.65603 7.42277 5.63488 7.48455L5.79525 7.36805C5.82521 7.34687 5.91685 7.25155 5.95386 7.25155C5.99087 7.25155 6.08427 7.34687 6.11423 7.36805L6.27284 7.48455C6.25345 7.42277 6.23231 7.35922 6.21116 7.29744C6.19001 7.23566 6.1389 7.14564 6.14948 7.10857C6.16005 7.0715 6.27989 7.01501 6.30985 6.99383L6.47022 6.87733H6.27284C6.23583 6.87733 6.09661 6.90028 6.07546 6.87733C6.05431 6.85438 6.02611 6.72552 6.01554 6.69022L5.95386 6.50135C5.93447 6.56489 5.91333 6.62667 5.89394 6.69022C5.8816 6.72552 5.86398 6.85615 5.83226 6.87733C5.80054 6.89851 5.67189 6.87733 5.63488 6.87733H5.4375L5.59787 6.99383C5.63312 7.01501 5.74591 7.07327 5.75824 7.10857Z" fill="#F4F4F4"/>
<path fill-rule="evenodd" clip-rule="evenodd" d="M5.75824 5.21453C5.76882 5.24983 5.7089 5.36633 5.69656 5.40164L5.63312 5.59051L5.79349 5.47401C5.82345 5.45106 5.91509 5.35751 5.9521 5.35751C5.98911 5.35751 6.08251 5.45106 6.11247 5.47401L6.27108 5.59051C6.25169 5.52696 6.23054 5.46518 6.2094 5.40164C6.19882 5.36633 6.13714 5.24983 6.14771 5.21453C6.15829 5.17922 6.27813 5.12097 6.30809 5.09803L6.46846 4.98152H6.27284C6.23583 4.98152 6.09661 5.00447 6.07546 4.98152C6.05431 4.95858 6.02611 4.82795 6.01554 4.79265C6.00497 4.75734 5.97501 4.66732 5.95386 4.60554L5.89394 4.79265C5.8816 4.82795 5.86398 4.95858 5.83226 4.98152C5.80054 5.00447 5.67189 4.98152 5.63488 4.98152H5.4375L5.59787 5.09803C5.63312 5.12097 5.74591 5.17746 5.75824 5.21453Z" fill="#F4F4F4"/>
<path fill-rule="evenodd" clip-rule="evenodd" d="M1.61147 6.87733C1.57975 6.85615 1.56213 6.72552 1.54979 6.69022C1.5304 6.62667 1.50926 6.56489 1.48987 6.50135L1.42819 6.69022C1.41762 6.72552 1.39823 6.85615 1.36827 6.87733C1.33831 6.89851 1.2079 6.87733 1.17089 6.87733H0.973511L1.13388 6.99383C1.16384 7.01501 1.28192 7.07327 1.29249 7.10857C1.30306 7.14387 1.24315 7.26214 1.23257 7.29744C1.222 7.33275 1.19028 7.42277 1.17089 7.48455L1.3295 7.36805C1.35946 7.34687 1.4511 7.25155 1.48987 7.25155C1.52864 7.25155 1.61852 7.34687 1.64848 7.36805L1.80885 7.48455C1.7877 7.42277 1.76655 7.35922 1.74717 7.29744C1.72778 7.23566 1.67315 7.14564 1.68549 7.10857C1.69782 7.0715 1.8159 7.01501 1.84586 6.99383L2.00447 6.87733H1.80709C1.77008 6.87733 1.64143 6.90028 1.61147 6.87733Z" fill="#F4F4F4"/>
<path fill-rule="evenodd" clip-rule="evenodd" d="M7.99115 1.42468C8.00173 1.45998 7.94004 1.57649 7.92947 1.61179L7.86779 1.80066L8.0264 1.68416C8.05636 1.66122 8.14976 1.56766 8.18677 1.56766C8.22378 1.56766 8.31542 1.66122 8.34538 1.68416L8.50575 1.80066L8.45288 1.61179C8.44231 1.57649 8.38062 1.45998 8.3912 1.42468C8.40177 1.38938 8.52161 1.32936 8.55157 1.30818L8.71194 1.19168H8.50575C8.46874 1.19168 8.33833 1.21286 8.30837 1.19168C8.27841 1.17049 8.25902 1.03811 8.24669 1.0028L8.18677 0.815693L8.12685 1.0028C8.11451 1.03811 8.09513 1.16873 8.06517 1.19168C8.03521 1.21462 7.9048 1.19168 7.86779 1.19168H7.67041L7.83078 1.30818C7.86074 1.32936 7.97882 1.38761 7.99115 1.42468Z" fill="#F4F4F4"/>
</g>
</svg>
