<svg width="22" height="22" viewBox="0 0 22 22" fill="none" xmlns="http://www.w3.org/2000/svg">
<path fill-rule="evenodd" clip-rule="evenodd" d="M21.8905 10.9453C21.8905 16.9902 16.9902 21.8905 10.9453 21.8905C4.90031 21.8905 0 16.9902 0 10.9453C0 4.90031 4.90031 0 10.9453 0C16.9902 0 21.8905 4.90031 21.8905 10.9453Z" fill="#07BEAA"/>
<path fill-rule="evenodd" clip-rule="evenodd" d="M17.4936 6.11606L17.5649 6.15302C17.6005 6.15302 17.6005 6.18866 17.5999 6.2243V6.33122V6.33125C17.5999 6.65233 17.5999 6.9734 17.5642 7.29415C17.5286 7.7578 17.4572 8.2231 17.3859 8.6851C17.2083 9.68334 16.8871 10.6466 16.4945 11.5376C15.3888 14.034 13.4976 16.1378 11.1429 17.5287L11.0003 17.6L10.929 17.5644C7.92248 15.8083 5.7302 12.938 4.82791 9.57642C4.68336 9.03763 4.57614 8.48953 4.507 7.936C4.43586 7.38014 4.40013 6.82033 4.40002 6.25994C4.40002 6.2081 4.40002 6.18978 4.40815 6.17638C4.4126 6.16905 4.41947 6.16319 4.43011 6.15414L4.43011 6.15414C4.44014 6.1456 4.45351 6.13421 4.47134 6.11606C6.57612 4.94061 8.93083 4.33407 11.3215 4.40568C11.6781 4.40568 12.035 4.44132 12.3916 4.47696C14.1754 4.65549 15.924 5.22507 17.4936 6.11606ZM5.04153 8.04292C5.07807 8.46426 5.14963 8.88183 5.25547 9.2913C5.25547 9.36037 5.28957 9.42944 5.32323 9.49761L5.32646 9.50415C5.96928 10.8948 7.64551 11.5366 9.0728 10.8591C9.81011 10.5143 10.3581 9.86245 10.5711 9.07713C10.6425 8.80959 10.6794 8.534 10.6807 8.25709C10.6807 8.08018 10.716 7.9036 10.7514 7.72702L10.7523 7.72216C10.9627 6.61875 11.7131 5.69454 12.7501 5.2617L12.9271 5.19009C12.9271 5.19009 12.9628 5.19009 12.9271 5.15445C12.3546 5.04753 11.7838 5.01189 11.1772 4.97625C9.00116 4.9407 6.85611 5.49529 4.97021 6.58103V6.65231C4.97021 7.11596 5.00587 7.58092 5.04153 8.04292ZM13.5326 14.8897C13.4782 14.9441 13.4446 15.0194 13.4158 15.0837C13.4069 15.1037 13.3984 15.1226 13.39 15.1395C13.3633 15.1932 13.3271 15.2415 13.283 15.2821C12.6052 15.8883 11.8557 16.4589 11.0709 16.9225L11.0003 16.9581C10.7695 16.8568 10.5535 16.7249 10.3581 16.5658C8.97333 15.6398 7.79507 14.4377 6.89737 13.0348C6.49617 12.3874 6.15004 11.7076 5.86264 11.0023C5.84209 10.9816 5.83339 10.9728 5.8297 10.9623C5.82698 10.9545 5.82698 10.9458 5.82698 10.9307L5.8983 10.967C6.11435 11.1434 6.35463 11.2879 6.61178 11.396C6.93302 11.5386 7.25394 11.6102 7.61084 11.6458C8.30556 11.7184 9.00536 11.5682 9.60898 11.2168C9.96555 11.0386 10.3225 10.8958 10.679 10.8601C12.035 10.7176 13.3203 11.5376 13.7119 12.8573C13.9258 13.5347 13.8545 14.2479 13.5333 14.8897H13.5326ZM16.9584 7.65088C16.994 7.32979 16.994 6.9734 16.994 6.65231L16.9947 6.58037L16.8877 6.54473C16.7597 6.47112 16.6223 6.39769 16.4851 6.32438C16.3547 6.25473 16.2245 6.18519 16.1029 6.11573L16.0712 6.10145C15.6892 5.92961 15.3072 5.75777 14.9256 5.65373C13.462 5.19009 11.8551 6.01046 11.3928 7.47235C11.2438 7.90877 11.2191 8.37802 11.3215 8.82766C11.4646 9.61015 11.9308 10.2962 12.6059 10.7176L12.7485 10.7888C13.7832 11.4307 14.4254 12.5718 14.3541 13.8199C14.3362 13.8735 14.3273 13.927 14.3184 13.9804C14.3095 14.034 14.3006 14.0875 14.2827 14.141C14.3048 14.141 14.3132 14.1273 14.3248 14.1085C14.332 14.0969 14.3404 14.0833 14.3541 14.0697L14.3609 14.0609C14.6082 13.7428 14.8555 13.4246 15.0675 13.0711C16.1304 11.4454 16.7795 9.58466 16.9584 7.65088Z" fill="white"/>
</svg>
