<svg width="22" height="22" viewBox="0 0 22 22" fill="none" xmlns="http://www.w3.org/2000/svg">
<path fill-rule="evenodd" clip-rule="evenodd" d="M11 22C4.92481 22 0 17.0752 0 11C0 4.92481 4.92481 0 11 0C17.0752 0 22 4.92481 22 11C22 17.0752 17.0752 22 11 22Z" fill="#1786C4"/>
<path d="M7.96313 12.8238C9.64061 11.1058 12.3599 11.1056 14.0374 12.8238L18.7004 17.6002H16.4729L12.9241 13.9644C11.8616 12.8762 10.1388 12.8763 9.07642 13.9644L5.52759 17.6002H3.30005L7.96313 12.8238ZM9.07642 8.00644C10.1388 9.09453 11.8617 9.09455 12.9241 8.00644L16.4446 4.39999H18.6711L14.0374 9.14706C12.36 10.8651 9.64055 10.865 7.96313 9.14706L3.32837 4.39999H5.55591L9.07642 8.00644Z" fill="white"/>
</svg>
